<?xml version="1.0" encoding="utf-8"?>
<svg version="1.1" xmlns:xlink="http://www.w3.org/1999/xlink" width="12px" height="12px" viewBox="160 263  12 12" xmlns="http://www.w3.org/2000/svg">
  <path d="M 166 263  C 169.36 263  172 265.64  172 269  C 172 272.36  169.36 275  166 275  C 162.64 275  160 272.36  160 269  C 160 265.64  162.64 263  166 263  Z " fill-rule="nonzero" fill="#ffffff" stroke="none" />
  <path d="M 166 263.5  C 169.08 263.5  171.5 265.92  171.5 269  C 171.5 272.08  169.08 274.5  166 274.5  C 162.92 274.5  160.5 272.08  160.5 269  C 160.5 265.92  162.92 263.5  166 263.5  Z " stroke-width="1" stroke="#0079fe" fill="none" />
  <path d="M 166 272  C 164.32 272  163 270.68  163 269  C 163 267.32  164.32 266  166 266  C 167.68 266  169 267.32  169 269  C 169 270.68  167.68 272  166 272  " fill-rule="nonzero" fill="#0079fe" stroke="none" />
</svg>