<?xml version="1.0" encoding="utf-8"?>
<svg version="1.1" xmlns:xlink="http://www.w3.org/1999/xlink" width="13px" height="12px" xmlns="http://www.w3.org/2000/svg">
  <g transform="matrix(1 0 0 1 -2383 -381 )">
    <path d="M 2.49166666666665 8  C 2.56388888888895 8  2.60000000000003 8.05555555555557  2.60000000000003 8.1666666666667  L 2.60000000000003 9.1666666666667  C 2.60000000000003 9.27777777777778  2.56388888888895 9.3333333333333  2.49166666666665 9.3333333333333  L 1.84166666666668 9.3333333333333  C 1.76944444444445 9.3333333333333  1.73333333333331 9.27777777777778  1.73333333333331 9.1666666666667  L 1.73333333333331 8.1666666666667  C 1.73333333333331 8.05555555555557  1.76944444444445 8  1.84166666666668 8  L 2.49166666666665 8  Z M 3.35833333333331 5.3333333333333  C 3.43055555555553 5.3333333333333  3.46666666666668 5.38888888888887  3.46666666666668 5.5  L 3.46666666666668 6.5  C 3.46666666666668 6.61111111111113  3.43055555555553 6.6666666666667  3.35833333333331 6.6666666666667  L 1.84166666666668 6.6666666666667  C 1.76944444444445 6.6666666666667  1.73333333333331 6.61111111111113  1.73333333333331 6.5  L 1.73333333333331 5.5  C 1.73333333333331 5.38888888888887  1.76944444444445 5.3333333333333  1.84166666666668 5.3333333333333  L 3.35833333333331 5.3333333333333  Z M 2.49166666666665 2.6666666666667  C 2.56388888888895 2.6666666666667  2.60000000000003 2.72222222222222  2.60000000000003 2.8333333333333  L 2.60000000000003 3.8333333333333  C 2.60000000000003 3.94444444444443  2.56388888888895 4  2.49166666666665 4  L 1.84166666666668 4  C 1.76944444444445 4  1.73333333333331 3.94444444444443  1.73333333333331 3.8333333333333  L 1.73333333333331 2.8333333333333  C 1.73333333333331 2.72222222222222  1.76944444444445 2.6666666666667  1.84166666666668 2.6666666666667  L 2.49166666666665 2.6666666666667  Z M 9.42500000000001 8  C 9.49722222222224 8  9.53333333333332 8.05555555555557  9.53333333333332 8.1666666666667  L 9.53333333333332 9.1666666666667  C 9.53333333333332 9.27777777777778  9.49722222222224 9.3333333333333  9.42500000000001 9.3333333333333  L 3.57499999999999 9.3333333333333  C 3.50277777777776 9.3333333333333  3.46666666666668 9.27777777777778  3.46666666666668 9.1666666666667  L 3.46666666666668 8.1666666666667  C 3.46666666666668 8.05555555555557  3.50277777777776 8  3.57499999999999 8  L 9.42500000000001 8  Z M 5.09166666666668 5.3333333333333  C 5.16388888888891 5.3333333333333  5.19999999999999 5.38888888888887  5.19999999999999 5.5  L 5.19999999999999 6.5  C 5.19999999999999 6.61111111111113  5.16388888888891 6.6666666666667  5.09166666666668 6.6666666666667  L 4.44166666666664 6.6666666666667  C 4.36944444444448 6.6666666666667  4.33333333333333 6.61111111111113  4.33333333333333 6.5  L 4.33333333333333 5.5  C 4.33333333333333 5.38888888888887  4.36944444444448 5.3333333333333  4.44166666666664 5.3333333333333  L 5.09166666666668 5.3333333333333  Z M 4.22500000000003 2.6666666666667  C 4.29722222222218 2.6666666666667  4.33333333333333 2.72222222222222  4.33333333333333 2.8333333333333  L 4.33333333333333 3.8333333333333  C 4.33333333333333 3.94444444444443  4.29722222222218 4  4.22500000000003 4  L 3.57499999999999 4  C 3.50277777777776 4  3.46666666666668 3.94444444444443  3.46666666666668 3.8333333333333  L 3.46666666666668 2.8333333333333  C 3.46666666666668 2.72222222222222  3.50277777777776 2.6666666666667  3.57499999999999 2.6666666666667  L 4.22500000000003 2.6666666666667  Z M 6.82499999999999 5.3333333333333  C 6.89722222222221 5.3333333333333  6.93333333333336 5.38888888888887  6.93333333333336 5.5  L 6.93333333333336 6.5  C 6.93333333333336 6.61111111111113  6.89722222222221 6.6666666666667  6.82499999999999 6.6666666666667  L 6.17500000000001 6.6666666666667  C 6.10277777777779 6.6666666666667  6.06666666666664 6.61111111111113  6.06666666666664 6.5  L 6.06666666666664 5.5  C 6.06666666666664 5.38888888888887  6.10277777777779 5.3333333333333  6.17500000000001 5.3333333333333  L 6.82499999999999 5.3333333333333  Z M 5.95833333333333 2.6666666666667  C 6.03055555555556 2.6666666666667  6.06666666666664 2.72222222222222  6.06666666666664 2.8333333333333  L 6.06666666666664 3.8333333333333  C 6.06666666666664 3.94444444444443  6.03055555555556 4  5.95833333333333 4  L 5.30833333333336 4  C 5.23611111111106 4  5.19999999999999 3.94444444444443  5.19999999999999 3.8333333333333  L 5.19999999999999 2.8333333333333  C 5.19999999999999 2.72222222222222  5.23611111111106 2.6666666666667  5.30833333333336 2.6666666666667  L 5.95833333333333 2.6666666666667  Z M 8.55833333333336 5.3333333333333  C 8.63055555555552 5.3333333333333  8.66666666666667 5.38888888888887  8.66666666666667 5.5  L 8.66666666666667 6.5  C 8.66666666666667 6.61111111111113  8.63055555555552 6.6666666666667  8.55833333333336 6.6666666666667  L 7.90833333333332 6.6666666666667  C 7.83611111111109 6.6666666666667  7.80000000000001 6.61111111111113  7.80000000000001 6.5  L 7.80000000000001 5.5  C 7.80000000000001 5.38888888888887  7.83611111111109 5.3333333333333  7.90833333333332 5.3333333333333  L 8.55833333333336 5.3333333333333  Z M 11.1583333333333 8  C 11.2305555555555 8  11.2666666666667 8.05555555555557  11.2666666666667 8.1666666666667  L 11.2666666666667 9.1666666666667  C 11.2666666666667 9.27777777777778  11.2305555555555 9.3333333333333  11.1583333333333 9.3333333333333  L 10.5083333333333 9.3333333333333  C 10.436111111111 9.3333333333333  10.4 9.27777777777778  10.4 9.1666666666667  L 10.4 8.1666666666667  C 10.4 8.05555555555557  10.436111111111 8  10.5083333333333 8  L 11.1583333333333 8  Z M 7.69166666666664 2.6666666666667  C 7.76388888888894 2.6666666666667  7.80000000000001 2.72222222222222  7.80000000000001 2.8333333333333  L 7.80000000000001 3.8333333333333  C 7.80000000000001 3.94444444444443  7.76388888888894 4  7.69166666666664 4  L 7.04166666666667 4  C 6.96944444444444 4  6.93333333333336 3.94444444444443  6.93333333333336 3.8333333333333  L 6.93333333333336 2.8333333333333  C 6.93333333333336 2.72222222222222  6.96944444444444 2.6666666666667  7.04166666666667 2.6666666666667  L 7.69166666666664 2.6666666666667  Z M 9.42500000000001 2.6666666666667  C 9.49722222222224 2.6666666666667  9.53333333333332 2.72222222222222  9.53333333333332 2.8333333333333  L 9.53333333333332 3.8333333333333  C 9.53333333333332 3.94444444444443  9.49722222222224 4  9.42500000000001 4  L 8.77499999999997 4  C 8.70277777777781 4  8.66666666666667 3.94444444444443  8.66666666666667 3.8333333333333  L 8.66666666666667 2.8333333333333  C 8.66666666666667 2.72222222222222  8.70277777777781 2.6666666666667  8.77499999999997 2.6666666666667  L 9.42500000000001 2.6666666666667  Z M 11.1583333333333 2.6666666666667  C 11.2305555555555 2.6666666666667  11.2666666666667 2.72222222222222  11.2666666666667 2.8333333333333  L 11.2666666666667 6.5  C 11.2666666666667 6.61111111111113  11.2305555555555 6.6666666666667  11.1583333333333 6.6666666666667  L 9.64166666666669 6.6666666666667  C 9.56944444444447 6.6666666666667  9.53333333333332 6.61111111111113  9.53333333333332 6.5  L 9.53333333333332 5.5  C 9.53333333333332 5.38888888888887  9.56944444444447 5.3333333333333  9.64166666666669 5.3333333333333  L 10.4 5.3333333333333  L 10.4 2.8333333333333  C 10.4 2.72222222222222  10.436111111111 2.6666666666667  10.5083333333333 2.6666666666667  L 11.1583333333333 2.6666666666667  Z M 0.866666666666653 10.6666666666667  L 12.1333333333333 10.6666666666667  L 12.1333333333333 1.3333333333333  L 0.866666666666653 1.3333333333333  L 0.866666666666653 10.6666666666667  Z M 12.74609375 0.390625  C 12.9153645833333 0.651041666666697  13 0.965277777777783  13 1.3333333333333  L 13 10.6666666666667  C 13 11.0347222222222  12.9153645833333 11.3489583333333  12.74609375 11.609375  C 12.5768229166667 11.8697916666667  12.3725694444444 12  12.1333333333333 12  L 0.866666666666653 12  C 0.627430555555574 12  0.423177083333333 11.8697916666667  0.25390625 11.609375  C 0.0846354166666667 11.3489583333333  0 11.0347222222222  0 10.6666666666667  L 0 1.3333333333333  C 0 0.965277777777783  0.0846354166666667 0.651041666666697  0.25390625 0.390625  C 0.423177083333333 0.130208333333303  0.627430555555574 0  0.866666666666653 0  L 12.1333333333333 0  C 12.3725694444444 0  12.5768229166667 0.130208333333303  12.74609375 0.390625  Z " fill-rule="nonzero" fill="#aeaeae" stroke="none" transform="matrix(1 0 0 1 2383 381 )" />
  </g>
</svg>