<?xml version="1.0" encoding="utf-8"?>
<svg version="1.1" xmlns:xlink="http://www.w3.org/1999/xlink" width="21px" height="15px" xmlns="http://www.w3.org/2000/svg">
  <g transform="matrix(1 0 0 1 -1107 -507 )">
    <path d="M 4.02499999999998 10  C 4.14166666666677 10  4.20000000000005 10.0694444444445  4.20000000000005 10.2083333333334  L 4.20000000000005 11.4583333333334  C 4.20000000000005 11.5972222222222  4.14166666666677 11.6666666666666  4.02499999999998 11.6666666666666  L 2.97500000000002 11.6666666666666  C 2.85833333333335 11.6666666666666  2.79999999999995 11.5972222222222  2.79999999999995 11.4583333333334  L 2.79999999999995 10.2083333333334  C 2.79999999999995 10.0694444444445  2.85833333333335 10  2.97500000000002 10  L 4.02499999999998 10  Z M 5.42499999999996 6.66666666666663  C 5.54166666666663 6.66666666666663  5.60000000000002 6.73611111111109  5.60000000000002 6.875  L 5.60000000000002 8.125  C 5.60000000000002 8.26388888888891  5.54166666666663 8.33333333333337  5.42499999999996 8.33333333333337  L 2.97500000000002 8.33333333333337  C 2.85833333333335 8.33333333333337  2.79999999999995 8.26388888888891  2.79999999999995 8.125  L 2.79999999999995 6.875  C 2.79999999999995 6.73611111111109  2.85833333333335 6.66666666666663  2.97500000000002 6.66666666666663  L 5.42499999999996 6.66666666666663  Z M 4.02499999999998 3.33333333333337  C 4.14166666666677 3.33333333333337  4.20000000000005 3.40277777777777  4.20000000000005 3.54166666666663  L 4.20000000000005 4.79166666666663  C 4.20000000000005 4.93055555555554  4.14166666666677 5  4.02499999999998 5  L 2.97500000000002 5  C 2.85833333333335 5  2.79999999999995 4.93055555555554  2.79999999999995 4.79166666666663  L 2.79999999999995 3.54166666666663  C 2.79999999999995 3.40277777777777  2.85833333333335 3.33333333333337  2.97500000000002 3.33333333333337  L 4.02499999999998 3.33333333333337  Z M 15.225 10  C 15.3416666666667 10  15.4 10.0694444444445  15.4 10.2083333333334  L 15.4 11.4583333333334  C 15.4 11.5972222222222  15.3416666666667 11.6666666666666  15.225 11.6666666666666  L 5.77499999999998 11.6666666666666  C 5.6583333333333 11.6666666666666  5.60000000000002 11.5972222222222  5.60000000000002 11.4583333333334  L 5.60000000000002 10.2083333333334  C 5.60000000000002 10.0694444444445  5.6583333333333 10  5.77499999999998 10  L 15.225 10  Z M 8.22500000000002 6.66666666666663  C 8.3416666666667 6.66666666666663  8.39999999999998 6.73611111111109  8.39999999999998 6.875  L 8.39999999999998 8.125  C 8.39999999999998 8.26388888888891  8.3416666666667 8.33333333333337  8.22500000000002 8.33333333333337  L 7.17499999999995 8.33333333333337  C 7.05833333333339 8.33333333333337  7 8.26388888888891  7 8.125  L 7 6.875  C 7 6.73611111111109  7.05833333333339 6.66666666666663  7.17499999999995 6.66666666666663  L 8.22500000000002 6.66666666666663  Z M 6.82500000000005 3.33333333333337  C 6.94166666666661 3.33333333333337  7 3.40277777777777  7 3.54166666666663  L 7 4.79166666666663  C 7 4.93055555555554  6.94166666666661 5  6.82500000000005 5  L 5.77499999999998 5  C 5.6583333333333 5  5.60000000000002 4.93055555555554  5.60000000000002 4.79166666666663  L 5.60000000000002 3.54166666666663  C 5.60000000000002 3.40277777777777  5.6583333333333 3.33333333333337  5.77499999999998 3.33333333333337  L 6.82500000000005 3.33333333333337  Z M 11.025 6.66666666666663  C 11.1416666666666 6.66666666666663  11.2 6.73611111111109  11.2 6.875  L 11.2 8.125  C 11.2 8.26388888888891  11.1416666666666 8.33333333333337  11.025 8.33333333333337  L 9.97500000000002 8.33333333333337  C 9.85833333333335 8.33333333333337  9.79999999999995 8.26388888888891  9.79999999999995 8.125  L 9.79999999999995 6.875  C 9.79999999999995 6.73611111111109  9.85833333333335 6.66666666666663  9.97500000000002 6.66666666666663  L 11.025 6.66666666666663  Z M 9.625 3.33333333333337  C 9.74166666666667 3.33333333333337  9.79999999999995 3.40277777777777  9.79999999999995 3.54166666666663  L 9.79999999999995 4.79166666666663  C 9.79999999999995 4.93055555555554  9.74166666666667 5  9.625 5  L 8.57500000000005 5  C 8.45833333333326 5  8.39999999999998 4.93055555555554  8.39999999999998 4.79166666666663  L 8.39999999999998 3.54166666666663  C 8.39999999999998 3.40277777777777  8.45833333333326 3.33333333333337  8.57500000000005 3.33333333333337  L 9.625 3.33333333333337  Z M 13.825 6.66666666666663  C 13.9416666666666 6.66666666666663  14 6.73611111111109  14 6.875  L 14 8.125  C 14 8.26388888888891  13.9416666666666 8.33333333333337  13.825 8.33333333333337  L 12.775 8.33333333333337  C 12.6583333333333 8.33333333333337  12.6 8.26388888888891  12.6 8.125  L 12.6 6.875  C 12.6 6.73611111111109  12.6583333333333 6.66666666666663  12.775 6.66666666666663  L 13.825 6.66666666666663  Z M 18.025 10  C 18.1416666666667 10  18.2 10.0694444444445  18.2 10.2083333333334  L 18.2 11.4583333333334  C 18.2 11.5972222222222  18.1416666666667 11.6666666666666  18.025 11.6666666666666  L 16.975 11.6666666666666  C 16.8583333333332 11.6666666666666  16.8 11.5972222222222  16.8 11.4583333333334  L 16.8 10.2083333333334  C 16.8 10.0694444444445  16.8583333333332 10  16.975 10  L 18.025 10  Z M 12.425 3.33333333333337  C 12.5416666666667 3.33333333333337  12.6 3.40277777777777  12.6 3.54166666666663  L 12.6 4.79166666666663  C 12.6 4.93055555555554  12.5416666666667 5  12.425 5  L 11.375 5  C 11.2583333333333 5  11.2 4.93055555555554  11.2 4.79166666666663  L 11.2 3.54166666666663  C 11.2 3.40277777777777  11.2583333333333 3.33333333333337  11.375 3.33333333333337  L 12.425 3.33333333333337  Z M 15.225 3.33333333333337  C 15.3416666666667 3.33333333333337  15.4 3.40277777777777  15.4 3.54166666666663  L 15.4 4.79166666666663  C 15.4 4.93055555555554  15.3416666666667 5  15.225 5  L 14.175 5  C 14.0583333333334 5  14 4.93055555555554  14 4.79166666666663  L 14 3.54166666666663  C 14 3.40277777777777  14.0583333333334 3.33333333333337  14.175 3.33333333333337  L 15.225 3.33333333333337  Z M 18.025 3.33333333333337  C 18.1416666666667 3.33333333333337  18.2 3.40277777777777  18.2 3.54166666666663  L 18.2 8.125  C 18.2 8.26388888888891  18.1416666666667 8.33333333333337  18.025 8.33333333333337  L 15.575 8.33333333333337  C 15.4583333333334 8.33333333333337  15.4 8.26388888888891  15.4 8.125  L 15.4 6.875  C 15.4 6.73611111111109  15.4583333333334 6.66666666666663  15.575 6.66666666666663  L 16.8 6.66666666666663  L 16.8 3.54166666666663  C 16.8 3.40277777777777  16.8583333333332 3.33333333333337  16.975 3.33333333333337  L 18.025 3.33333333333337  Z M 1.39999999999998 13.3333333333334  L 19.6 13.3333333333334  L 19.6 1.66666666666663  L 1.39999999999998 1.66666666666663  L 1.39999999999998 13.3333333333334  Z M 20.58984375 0.48828125  C 20.86328125 0.813802083333371  21 1.20659722222223  21 1.66666666666663  L 21 13.3333333333334  C 21 13.7934027777778  20.86328125 14.1861979166666  20.58984375 14.51171875  C 20.31640625 14.8372395833334  19.9864583333333 15  19.6 15  L 1.39999999999998 15  C 1.0135416666667 15  0.68359375 14.8372395833334  0.41015625 14.51171875  C 0.13671875 14.1861979166666  0 13.7934027777778  0 13.3333333333334  L 0 1.66666666666663  C 0 1.20659722222223  0.13671875 0.813802083333371  0.41015625 0.48828125  C 0.68359375 0.162760416666629  1.0135416666667 0  1.39999999999998 0  L 19.6 0  C 19.9864583333333 0  20.31640625 0.162760416666629  20.58984375 0.48828125  Z " fill-rule="nonzero" fill="#aeaeae" stroke="none" transform="matrix(1 0 0 1 1107 507 )" />
  </g>
</svg>