<?xml version="1.0" encoding="utf-8"?>
<svg version="1.1" xmlns:xlink="http://www.w3.org/1999/xlink" width="14px" height="14px" xmlns="http://www.w3.org/2000/svg">
  <g transform="matrix(1 0 0 1 -1246 -18 )">
    <path d="M 13.9247499862634 5.970125  C 13.9221139687481 5.91091545856179  13.9127196799091 5.85220115325966  13.8967499862911 5.795125  C 13.3236249868564 2.50687499999999  10.4492499896919 0  6.99999999309466 0  C 3.14037499690198 0  0 3.1395  0 7  C 0 10.8605  3.14037499690198 14  6.99999999309466 14  C 8.94179937302624 13.9970103098472  10.7957172404388 13.1902567111871  12.1213749880424 11.771375  C 12.2462860441806 11.6282422451003  12.3151117226594 11.4447017857271  12.3151117226594 11.2547287415826  C 12.3151117226594 10.8207709994031  11.9633194651858 10.4689787415826  11.5293617234345 10.4689787415826  C 11.3203532684013 10.4689787415826  11.1199573472031 10.5522505189639  10.9724999891757 10.700375  C 9.94914729649736 11.807734216888  8.50779599141356 12.4344363047827  6.99999999309466 12.427625  C 4.0036626361732 12.4242505107995  1.57535749515318 9.99633677698174  1.57149999844978 7  C 1.57391182169408 4.00278014249757  4.00278056619959 1.57351989515319  6.99999999309466 1.57062499999999  C 9.21850269599486 1.572866127352  11.2131496747309 2.92271576811302  12.0399999881229 4.981375  L 10.3109999898284 4.6305  C 10.1987867015191 4.57195015555354  10.0740900694125 4.54137441662132  9.94752030070345 4.54137441662132  C 9.51356255895189 4.54137441662132  9.16177030147855 4.89316667444177  9.16177030147855 5.32712441662132  C 9.16177030147855 5.70050828538115  9.42453455317741 6.02232545466354  9.79037499034189 6.097  L 12.8502499873234 7.69562499999999  C 12.9625954461196 7.75435062836848  13.0874817021645 7.78502232179324  13.2142500007749 7.78502232179324  C 13.6482077425267 7.78502232179324  14 7.43323006397279  14 6.99927232179325  C 13.9999999861891 6.649125  13.9737499862151 6.30612500000002  13.9247499862634 5.970125  Z " fill-rule="nonzero" fill="#716c66" stroke="none" transform="matrix(1 0 0 1 1246 18 )" />
  </g>
</svg>