<?xml version="1.0" encoding="utf-8"?>
<svg version="1.1" xmlns:xlink="http://www.w3.org/1999/xlink" width="18px" height="17px" xmlns="http://www.w3.org/2000/svg">
  <g transform="matrix(1 0 0 1 -19 -18 )">
    <path d="M 0.971454553977273 13.262933325  C 0.162428608651334 12.8795854807377  -0.178796567610581 11.929859667518  0.207272735795454 11.136  L 3.29454544602273 12.585066675  L 9.00327272727273 15.288533325  L 14.5085454460227 12.680533325  L 17.8009090823864 11.138666675  C 18.1849292518888 11.9322707804424  17.8431881540819 12.8802101663707  17.0350909005682 13.262933325  L 9.71672727272727 16.728533325  C 9.26613845661555 16.9419804394825  8.74040699792991 16.9419804394825  8.28981818181818 16.728533325  L 0.971454553977273 13.262933325  Z M 17.7938181818182 7.787733325  C 17.9019239400893 8.00548799575338  17.9580916506929 8.24438757224248  17.9580916506929 8.48644191968573  C 17.9580916506929 9.09972335639213  17.5995721535958 9.65904364592099  17.0350909005682 9.9264  L 9.71618182670455 13.392  C 9.26559301059282 13.6054471144825  8.73986155190718 13.6054471144825  8.28927273579546 13.392  L 0.971454553977273 9.9264  C 0.190904748425337 9.5563770425157  -0.158710314235051 8.6550832902884  0.174545463068181 7.872  L 8.28 11.610133325  L 9.00327272727272 11.952533325  L 16.3216363551136 8.486933325  L 16.3178181818182 8.485333325  L 17.7938181818182 7.788266675  Z M 9.71672727272727 0.2448  L 17.0345454545455 3.709866675  C 17.5990750840839 3.97720498278981  17.9576347183297 4.53655053426686  17.9576347183297 5.149866675  C 17.9576347183297 5.76318281573314  17.5990750840839 6.32252836721019  17.0345454545455 6.589866675  L 9.71672727272727 10.055466675  C 9.26613845661555 10.2689137894825  8.7404069979299 10.2689137894825  8.28981818181818 10.055466675  L 0.971454553977273 6.589866675  C 0.406924924438816 6.32252836721019  0.0483652901930196 5.76318281573314  0.0483652901930196 5.149866675  C 0.0483652901930196 4.53655053426686  0.406924924438816 3.97720498278981  0.971454553977273 3.709866675  L 8.28981818181818 0.245333325  C 8.74040699792991 0.0318862105174951  9.26613845661555 0.0318862105174951  9.71672727272727 0.245333325  Z M 16.3216363551136 5.149866675  L 9.00327272727273 1.6848  L 1.68490909943182 5.149866675  L 9.00327272727273 8.615466675  L 16.3216363551136 5.149866675  Z " fill-rule="nonzero" fill="#ffffff" stroke="none" transform="matrix(1 0 0 1 19 18 )" />
  </g>
</svg>