<?xml version="1.0" encoding="utf-8"?>
<svg version="1.1" xmlns:xlink="http://www.w3.org/1999/xlink" width="17px" height="14px" xmlns="http://www.w3.org/2000/svg">
  <g transform="matrix(1 0 0 1 -21 -18 )">
    <path d="M 2.14186508700707 0.531862752872243  L 14.8581349129929 0.531862752872242  C 15.6684812870006 0.531862752872242  16.3253968177548 1.20014360422775  16.3253968177548 2.02450981169577  L 16.3253968177548 11.9754901883042  C 16.3253968177548 12.7998563957723  15.6684812870006 13.4681372471278  14.8581349129929 13.4681372471278  L 2.14186508700707 13.4681372471278  C 1.33151871299939 13.4681372471278  0.674603182245163 12.7998563957723  0.674603182245163 11.9754901883042  L 0.674603182245163 2.02450981169577  C 0.674603182245163 1.20014360422775  1.33151871299939 0.531862752872243  2.14186508700707 0.531862752872243  Z M 14.8581349129929 12  L 14.8581349129929 2  L 2.14186508700707 2  L 2.14186508700707 12  L 14.8581349129929 12  Z M 3.12003967489769 9.48774510581342  L 5.56547619047619 9.48774510581342  L 5.56547619047619 10.9803921646369  L 3.12003967489769 10.9803921646369  L 3.12003967489769 9.48774510581342  Z M 3.12003967489769 4.51225489418658  L 13.8799603251023 4.51225489418658  L 13.8799603251023 6  L 3.12003967489769 6  L 3.12003967489769 4.51225489418658  Z " fill-rule="nonzero" fill="#ffffff" stroke="none" transform="matrix(1 0 0 1 21 18 )" />
  </g>
</svg>