<?xml version="1.0" encoding="utf-8"?>
<svg version="1.1" xmlns:xlink="http://www.w3.org/1999/xlink" width="18px" height="17px" xmlns="http://www.w3.org/2000/svg">
  <g transform="matrix(1 0 0 1 -22 -17 )">
    <path d="M 3.64772728045099 0.185515865373884  L 5.13068182590554 0.185515865373884  L 5.13068182590554 3.60912699176897  L 8.59090909090909 3.60912699176897  L 8.59090909090909 0.185515865373884  L 10.0738636363636 0.185515865373884  L 10.0738636363636 3.60912699176897  L 11.5568181818182 3.60912699176897  C 12.375831361965 3.60912699176897  13.0397727272727 4.2660425225232  13.0397727272727 5.07638889653088  L 13.0397727272727 6.0545634844215  C 13.0397727272727 6.86490985842919  12.375831361965 7.52182538918341  11.5568181818182 7.52182538918341  L 11.5568181818182 10.9454365155785  C 11.5568181818182 11.7557828895862  10.8928768165104 12.4126984203404  10.0738636363636 12.4126984203404  L 7.62995454545455 12.4131875  C 7.84646590909091 14.0941805631975  8.83609090136719 14.8581349129929  10.8153409090909 14.8581349129929  C 12.2923636363636 14.8581349129929  12.8791193259055 14.2257450320406  13.2869318259055 12.6606656822452  C 13.3116477427202 12.5657827380952  13.3363636363636 12.4669871108166  13.3625625077237 12.3549861034691  L 13.38975 12.2390724129929  L 13.5227215986328 11.657058539388  C 13.7199545531783 10.816806547619  13.8751704699929 10.3883660714286  14.1910397650035 9.9980744047619  C 14.9547613559126 9.05315773809524  15.9374659090909 8.54352877748326  17.0902159013672 8.50244544414992  L 17.2414772650036 8.5  L 17.2414772650036 9.96726190476191  C 16.4826988481889 9.96726190476191  15.8697443104581 10.270496039388  15.3487329545455 10.9146240155785  C 15.2172443104581 11.0774900870071  15.1099772727273 11.3807242216332  14.9621761286399 12.0101795558501  L 14.9339999922763 12.1324513965309  L 14.8064659013672 12.6914781822452  L 14.7506079622692 12.9198819368025  L 14.7234204468217 13.0269920558501  L 14.6858522727273 13.1654037774833  C 14.1173863713601 15.2195704441499  13.0427386363636 16.3253968177548  10.8153409090909 16.3253968177548  C 8.03381249227628 16.3253968177548  6.39514771954901 14.9657341117002  6.13760796226917 12.4126984203404  L 3.64772728045099 12.4126984203404  C 2.82871410030419 12.4126984203404  2.16477273499645 11.7557828895862  2.16477273499645 10.9454365155785  L 2.16477273499645 7.52182538918341  C 1.34575955484965 7.52182538918341  0.681818189541904 6.86490985842919  0.681818189541904 6.0545634844215  L 0.681818189541904 5.07638889653088  C 0.681818189541904 4.2660425225232  1.34575955484965 3.60912699176897  2.16477273499645 3.60912699176897  L 3.64772728045099 3.60912699176897  L 3.64772728045099 0.185515865373884  Z M 10.0738636363636 10.9454365155785  L 10.0738636363636 7.52182538918341  L 3.64772728045099 7.52182538918341  L 3.64772728045099 10.9454365155785  L 10.0738636363636 10.9454365155785  Z M 11.5568181818182 6.0545634844215  L 11.5568181818182 5.07638889653088  L 2.16477273499645 5.07638889653088  L 2.16477273499645 6.0545634844215  L 11.5568181818182 6.0545634844215  Z " fill-rule="nonzero" fill="#ffffff" stroke="none" transform="matrix(1 0 0 1 22 17 )" />
  </g>
</svg>