<?xml version="1.0" encoding="utf-8"?>
<svg version="1.1" xmlns:xlink="http://www.w3.org/1999/xlink" width="18px" height="18px" xmlns="http://www.w3.org/2000/svg">
  <g transform="matrix(1 0 0 1 -22 -17 )">
    <path d="M 0.130434774456521 9  C 0.130434774456521 4.45460869565217  3.54991304347826 0.707478260869564  7.95652173097826 0.19095652173913  L 7.95652173097826 1.76973913858696  C 4.41652172282609 2.27582608695652  1.69565216576087 5.32017391304348  1.69565216576087 9  C 1.69565216576087 13.0340869483696  4.96591302717391 16.3043478342391  9 16.3043478342391  C 12.6798260869565 16.3043478342391  15.7241739130435 13.5834782771739  16.230260861413 10.0434782690217  L 17.8090434782609 10.0434782690217  C 17.2925217391304 14.4500869565217  13.5453913043478 17.8695652255435  9 17.8695652255435  C 4.10139129619565 17.8695652255435  0.130434774456521 13.8986087038043  0.130434774456521 9  Z M 9 9  L 9 0.130434774456522  C 13.8417391222826 0.130434774456522  17.778260861413 4.0106086875  17.8680000081522 8.83147825271739  L 17.8695652255435 9  L 9 9  Z M 10.7342608695652 1.90278261684783  L 10.5652173913043 1.86365218206522  L 10.5652173913043 7.43478260869565  L 16.1363478179348 7.43478260869565  C 15.5370369575052 4.71197979654516  13.4420556577493 2.56661696844975  10.7342608695652 1.90278261684783  Z " fill-rule="nonzero" fill="#ffffff" stroke="none" transform="matrix(1 0 0 1 22 17 )" />
  </g>
</svg>