<?xml version="1.0" encoding="utf-8"?>
<svg version="1.1" xmlns:xlink="http://www.w3.org/1999/xlink" width="18px" height="18px" xmlns="http://www.w3.org/2000/svg">
  <g transform="matrix(1 0 0 1 -19 -16 )">
    <path d="M 1.74418605523256 0.0697674505813951  L 6.76744186918605 0.0697674505813951  C 7.69219772936784 0.0697674505813951  8.44186047383721 0.819430195050764  8.44186047383721 1.74418605523256  L 8.44186047383721 16.2558139447674  C 8.44186047383721 17.1805698049492  7.69219772936784 17.9302325494186  6.76744186918605 17.9302325494186  L 1.74418605523256 17.9302325494186  C 0.819430195050765 17.9302325494186  0.0697674505813958 17.1805698049492  0 16.2558139447674  L 0 1.74418605523256  C 0.0697674505813958 0.819430195050764  0.819430195050765 0.0697674505813951  1.74418605523256 0.0697674505813951  Z M 11.232558130814 9.55813952616279  L 16.2558139447674 9.55813952616279  C 17.1805698049492 9.55813952616279  17.9302325494186 10.3078022706322  17.9302325494186 11.232558130814  L 17.9302325494186 16.2558139447674  C 17.9302325494186 17.1805698049492  17.1805698049492 17.9302325494186  16.2558139447674 17.9302325494186  L 11.232558130814 17.9302325494186  C 10.3078022706322 17.9302325494186  9.55813952616279 17.1805698049492  9.55813952616279 16.2558139447674  L 9.55813952616279 11.232558130814  C 9.55813952616279 10.3078022706322  10.3078022706322 9.55813952616279  11.232558130814 9.55813952616279  Z M 7 16.2558139447674  L 7 1.74418605523256  L 2 1.74418605523256  L 2 16.2558139447674  L 7 16.2558139447674  Z M 16.2558139447674 16.2558139447674  L 16.2558139447674 11.232558130814  L 11.232558130814 11.232558130814  L 11.232558130814 16.2558139447674  L 16.2558139447674 16.2558139447674  Z M 11.232558130814 0.0697674505813958  L 16.2558139447674 0.0697674505813958  C 17.1805698049492 0.0697674505813958  17.9302325494186 0.819430195050765  17.9302325494186 1.74418605523256  L 17.9302325494186 6.76744186918605  C 17.9302325494186 7.69219772936784  17.1805698049492 8.44186047383721  16.2558139447674 8.44186047383721  L 11.232558130814 8.44186047383721  C 10.3078022706322 8.44186047383721  9.55813952616279 7.69219772936784  9.55813952616279 6.76744186918605  L 9.55813952616279 1.74418605523256  C 9.55813952616279 0.819430195050765  10.3078022706322 0.0697674505813958  11.232558130814 0.0697674505813958  Z M 16.2558139447674 6.76744186918605  L 16.2558139447674 1.74418605523256  L 11.232558130814 1.74418605523256  L 11.232558130814 6.76744186918605  L 16.2558139447674 6.76744186918605  Z " fill-rule="nonzero" fill="#ffffff" stroke="none" transform="matrix(1 0 0 1 19 16 )" />
  </g>
</svg>