<?xml version="1.0" encoding="utf-8"?>
<svg version="1.1" xmlns:xlink="http://www.w3.org/1999/xlink" width="17px" height="16px" xmlns="http://www.w3.org/2000/svg">
  <g transform="matrix(1 0 0 1 -22 -17 )">
    <path d="M 3.3660505952381 0.666666674218749  L 13.6334603251023 0.666666674218749  C 14.3800278022908 0.666669568478608  15.0075651348076 1.22066874289551  15.0914295558501 1.95378332578125  L 16.3253968177548 12.75  L 16.318060508231 12.75  C 16.3229421193454 12.8161068052906  16.3253853548171 12.8823674048555  16.3253853548171 12.9486500000235  C 16.3253853548171 14.4560467872949  15.0888513575155 15.6780333258048  13.5635093703956 15.6780333258048  L 3.43647916666667 15.6780333257812  C 1.91114864248448 15.6780333258048  0.674614645182888 14.4560467872949  0.674614645182888 12.9486500000235  C 0.674614645182888 12.8823674048555  0.677057880654609 12.8161068052905  0.681939491768973 12.75  L 0.674603182245163 12.75  L 1.90857044414992 1.95378332578125  C 1.99241384636159 1.22085210669597  2.61966989390675 0.666915435252533  3.3660505952381 0.666666674218749  Z M 13.7650247939453 11.6847333257812  C 13.6983499172118 11.6745971277001  13.6309798247577 11.6695876577121  13.5635208333333 11.66975  L 3.43647916666667 11.66975  C 3.36900794698419 11.6697592057739  3.3016386890725 11.674930212643  3.23497520605469 11.6852166742188  L 3.27263491299293 11.6799  C 3.24610404708076 11.6831166419416  3.21968060907646 11.6871463576372  3.19340277013579 11.6919833257813  L 3.23497520605469 11.6852166742188  C 3.21052083333333 11.6886  3.18704464285714 11.69295  3.16356845238095 11.6982666742187  L 3.19291369047619 11.6919833257813  C 3.10536189584206 11.7086163503067  3.01979972130987 11.7342097984179  2.93761011904762 11.76835  L 2.96304265108817 11.7577166742188  C 2.93809919870722 11.7673833484375  2.91315574632626 11.7780166742188  2.88919047619048 11.7891333257813  L 2.93761011904762 11.76835  C 2.9169974211947 11.7768467887947  2.89661188525117 11.7858720665215  2.87647419870722 11.7954166742188  L 2.88919047619048 11.7891333257813  C 2.86424702380952 11.8007333257812  2.83930357142857 11.8133  2.81582738095238 11.82635  L 2.87647419870722 11.7954166742188  C 2.75097402950738 11.8549329045945  2.63602546317468 11.9340911921309  2.53606943680245 12.0298333257813  L 2.56932738095238 11.9989  C 2.55108106896786 12.0151553589251  2.53330378739784 12.0319176230795  2.51601687272135 12.0491666742187  L 2.53558035714286 12.0298333257812  C 2.51882122804194 12.0461494565782  2.50251234105947 12.0629111601484  2.48667163462611 12.0801  L 2.51601687272135 12.0491666742187  C 2.49645338829985 12.0689833484375  2.47688988095238 12.0892833484375  2.45879365843564 12.11055  L 2.48618253204055 12.0801  C 2.47022182673596 12.0970832434533  2.45472841295982 12.1144895959007  2.43971925367373 12.1323  L 2.45879365843564 12.11055  C 2.44295559001351 12.1284924234221  2.427624936562 12.1468661766945  2.41281943680245 12.16565  L 2.43971925367373 12.1323  C 2.42015576925223 12.1564666742188  2.40059226190476 12.1811166742188  2.38200693680245 12.2067333257812  L 2.41281943680245 12.16565  C 2.39814681775484 12.1849833257813  2.38347419870722 12.2043166742188  2.36977976190476 12.22365  L 2.38200693680245 12.2067333257812  C 2.36733431775484 12.22655  2.35363988095238 12.24685  2.34043452380952 12.2676333257813  L 2.36977976190476 12.22365  C 2.35510714285714 12.2449166742188  2.34043452380952 12.2666666742188  2.32722916666667 12.2889  L 2.34043452380952 12.2676333257813  C 2.32674008700707 12.2893833257812  2.31353472986421 12.3111333257813  2.30130753204055 12.33385  L 2.32722916666667 12.2889  C 2.31255654761905 12.3130666742188  2.29886211081659 12.3372333257813  2.28565675367373 12.3623666742188  L 2.30081845238095 12.33385  C 2.29103669870722 12.35125  2.28223312727864 12.3691333257813  2.27294047619047 12.3870166742188  L 2.28565675367373 12.3623666742188  C 2.27388147900925 12.3849119704389  2.26279054816108 12.4077999597473  2.25239880952381 12.431  L 2.27294047619047 12.3875  C 2.25875693680245 12.4160166742188  2.2455515796596 12.4455  2.2338134844215 12.4754666742188  L 2.25239880952381 12.431  C 2.2428404949877 12.4521812610342  2.23387053922254 12.4736170605004  2.22549901557849 12.4952833257812  L 2.2333244047619 12.4754666742187  C 2.22416445431937 12.4984175673847  2.21568334282897 12.5216274215506  2.20789187272135 12.5450666742187  L 2.22549901557849 12.4952833257812  C 2.21571726190476 12.5209  2.20691369047619 12.547  2.19859919870721 12.5735833257813  L 2.20789187272135 12.5450666742188  C 2.20055556319754 12.5668166742188  2.19370833333333 12.5885666742188  2.18783928571428 12.6103166742188  L 2.19859919870721 12.5735833257813  C 2.18998713664634 12.6010294046588  2.18232035897876 12.6287564878919  2.17561211081659 12.6567166742188  L 2.18783928571428 12.6103166742188  C 2.18067540065552 12.635731443949  2.17431418228866 12.6613605336949  2.16876488095238 12.6871666742188  L 2.17561211081659 12.6567166742188  C 2.16974306319754 12.6813666742188  2.16485219782366 12.7065  2.16093949176897 12.7316333257813  L 2.16876488095238 12.6871666742188  C 2.1505268614556 12.7733239300066  2.14133481637993 12.8611111992594  2.14133481637993 12.9491334557586  C 2.14133481637993 13.6557173557754  2.7209532829273 14.2285167815399  3.43594889603953 14.2285167815399  C 3.43612565292428 14.2285167815399  3.43630240979674 14.2285167457662  3.43647916666666 14  L 13.5635208333333 14  C 13.5636038942943 14.228516690018  13.5636869552573 14.2285166979176  13.5637700162198 14.2285166979176  C 14.2787656293321 14.2285166979176  14.8583840958794 13.6557172721531  14.8583840958794 12.9491333721363  C 14.8583840958794 12.8346594649911  14.8428375291284 12.7207033624964  14.8121607142857 12.6103166742188  L 14.8243878891834 12.6567166742188  C 14.8176796410212 12.6287564878919  14.8100128633537 12.6010294046588  14.8014008012928 12.5735833257813  L 14.8121607142857 12.6103166742188  C 14.8062308700944 12.5883977831024  14.7997073643118 12.5666399641402  14.7925972298642 12.5450666742188  L 14.8014008012928 12.5740666742188  C 14.7933069245083 12.5475223873796  14.7843355098855 12.5212471867867  14.7745009844215 12.4952833257812  L 14.7921081272786 12.5450666742187  C 14.784316657171 12.5216274215506  14.7758355456806 12.4984175673847  14.7666755952381 12.4754666742187  L 14.7745009844215 12.4948  C 14.7661211970726 12.4732963189323  14.7571512842797 12.4520217903115  14.7476011904762 12.431  L 14.7666755952381 12.4754666742187  C 14.7546096544859 12.4454976921077  14.7413947473085 12.4159930366057  14.7270595238095 12.3870166742188  L 14.7476011904762 12.431  C 14.7372094518389 12.4077999597473  14.7261185209908 12.3849119704389  14.7143432463263 12.3623666742188  L 14.7270595238095 12.3870166742188  C 14.7180275707921 12.3690767973343  14.7085692622717 12.3513496560187  14.6986924679595 12.33385  L 14.7143432463263 12.36285  C 14.7013160249823 12.3377530298194  14.6874509477384 12.3130894996472  14.6727708333333 12.2889  L 14.6986924679595 12.33385  C 14.6863230496645 12.3113961148487  14.6732748512748 12.2893139597212  14.6595654761905 12.2676333257812  L 14.6727708333333 12.2889  C 14.6592576455789 12.2667301528437  14.6450675987369 12.2449701621489  14.6302202380952 12.22365  L 14.6595654761905 12.26715  C 14.6462917223884 12.2466248334603  14.6324286213751 12.2264777600217  14.6179930631975 12.2067333257812  L 14.6302202380952 12.22365  C 14.6164246482674 12.2039232117766  14.6020724584163 12.1845822893988  14.5871805631975 12.16565  L 14.6179930631975 12.2067333257812  C 14.5995185656185 12.181228400941  14.5801050900583 12.1564006538928  14.5597916666667 12.1323  L 14.5871805631975 12.1661333257812  C 14.5725431013528 12.1471925072759  14.5573755337458 12.1286575694927  14.5416954441499 12.11055  L 14.5597916666667 12.1323  C 14.5447894472759 12.1143263860004  14.5292959665253 12.096758798869  14.5133283653739 12.0796166742187  L 14.5416954441499 12.11055  C 14.5231290335703 12.0896389824058  14.5038814844186 12.0693283137845  14.4839831272786 12.04965  L 14.5133283653739 12.0796166742187  C 14.4974809460277 12.0625910589362  14.4811721185275 12.0459905835962  14.4644196428571 12.0298333257812  L 14.4839831272786 12.0491666742187  C 14.4666962126022 12.0319176230795  14.4489189310321 12.0151553589251  14.4306726190476 11.9989  L 14.4639305631975 12.0298333257813  C 14.3637700512558 11.9339876599077  14.2486705869518 11.8546759826341  14.1230366987072 11.7949333257812  L 14.1846616987072 11.82635  C 14.1606085433842 11.8133382425339  14.1361417516159 11.8010875784919  14.1112986034691 11.7896166742187  L 14.1230366987072 11.7949333257812  C 14.1030603911739 11.785396358538  14.0828380354197 11.7763711289013  14.0623898809524 11.7678666742187  L 14.1112986034691 11.7896166742187  C 14.0868442307478 11.7780166742187  14.0623898809524 11.7678666742187  14.0374464285714 11.7582  L 14.0619008012928 11.7678666742187  C 13.9798496380201 11.7339236740498  13.8944534850555 11.7084928361659  13.8070863095238 11.6919833257812  L 13.836431547619 11.6982666742187  C 13.8127580103043 11.6932549481084  13.7889463158684 11.6889032223066  13.7650247939453 11.6852166742187  L 13.8070863095238 11.6919833257812  C 13.7808084705831 11.6871463576372  13.7543850325788 11.6831166419416  13.7278541666667 11.6799  L 13.7650247939453 11.6847333257812  Z M 12.6431843436213 12.9491333371094  C 12.6431843436213 12.5722659602162  12.9522959069906 12.2667353402344  13.3336497939453 12.2666666742187  C 13.7151786520248 12.2666666628906  14.0243668985879 12.5722174006706  14.0243668985879 12.9491333371094  C 14.0243668985879 13.3260492735481  13.7151786520248 13.6316000113281  13.3337756211046 13.6316000113281  C 12.9522959069906 13.6315313339844  12.6431843436213 13.3260007140025  12.6431843436213 12.9491333371094  Z M 14.5818005952381 10.41115  L 13.6334603251023 2.11666667421875  L 3.36653967489769 2.11666667421875  L 2.4181994047619 10.4106666742187  C 2.74234389340197 10.2839262439519  3.08788608261241 10.2191407419373  3.43647916666667 10  L 13.5635208333333 10  C 13.923 10.21975  14.2668283653739 10.2874166742188  14.5818005952381 10.41115  Z M 5.56547619047619 5.74166667421875  L 11.4345238095238 5.74166667421875  L 11.4345238095238 7.19166667421875  L 5.56547619047619 7.19166667421875  L 5.56547619047619 5.74166667421875  Z " fill-rule="nonzero" fill="#ffffff" stroke="none" transform="matrix(1 0 0 1 22 17 )" />
  </g>
</svg>