<?xml version="1.0" encoding="utf-8"?>
<svg version="1.1" xmlns:xlink="http://www.w3.org/1999/xlink" width="12px" height="12px" viewBox="389 894  12 12" xmlns="http://www.w3.org/2000/svg">
  <path d="M 395 894  C 398.36 894  401 896.64  401 900  C 401 903.36  398.36 906  395 906  C 391.64 906  389 903.36  389 900  C 389 896.64  391.64 894  395 894  Z " fill-rule="nonzero" fill="#ffffff" stroke="none" />
  <path d="M 395 894.5  C 398.08 894.5  400.5 896.92  400.5 900  C 400.5 903.08  398.08 905.5  395 905.5  C 391.92 905.5  389.5 903.08  389.5 900  C 389.5 896.92  391.92 894.5  395 894.5  Z " stroke-width="1" stroke="#0079fe" fill="none" />
  <path d="M 395 903  C 393.32 903  392 901.68  392 900  C 392 898.32  393.32 897  395 897  C 396.68 897  398 898.32  398 900  C 398 901.68  396.68 903  395 903  " fill-rule="nonzero" fill="#0079fe" stroke="none" />
</svg>