<?xml version="1.0" encoding="utf-8"?>
<svg version="1.1" xmlns:xlink="http://www.w3.org/1999/xlink" width="12px" height="12px" viewBox="589 894  12 12" xmlns="http://www.w3.org/2000/svg">
  <path d="M 595 894  C 598.36 894  601 896.64  601 900  C 601 903.36  598.36 906  595 906  C 591.64 906  589 903.36  589 900  C 589 896.64  591.64 894  595 894  Z " fill-rule="nonzero" fill="#ffffff" stroke="none" />
  <path d="M 595 894.5  C 598.08 894.5  600.5 896.92  600.5 900  C 600.5 903.08  598.08 905.5  595 905.5  C 591.92 905.5  589.5 903.08  589.5 900  C 589.5 896.92  591.92 894.5  595 894.5  Z " stroke-width="1" stroke="#0079fe" fill="none" />
  <path d="M 595 903  C 593.32 903  592 901.68  592 900  C 592 898.32  593.32 897  595 897  C 596.68 897  598 898.32  598 900  C 598 901.68  596.68 903  595 903  " fill-rule="nonzero" fill="#0079fe" stroke="none" />
</svg>