<?xml version="1.0" encoding="utf-8"?>
<svg version="1.1" xmlns:xlink="http://www.w3.org/1999/xlink" width="12px" height="12px" viewBox="160 354  12 12" xmlns="http://www.w3.org/2000/svg">
  <path d="M 166 354  C 169.36 354  172 356.64  172 360  C 172 363.36  169.36 366  166 366  C 162.64 366  160 363.36  160 360  C 160 356.64  162.64 354  166 354  Z " fill-rule="nonzero" fill="#ffffff" stroke="none" />
  <path d="M 166 354.5  C 169.08 354.5  171.5 356.92  171.5 360  C 171.5 363.08  169.08 365.5  166 365.5  C 162.92 365.5  160.5 363.08  160.5 360  C 160.5 356.92  162.92 354.5  166 354.5  Z " stroke-width="1" stroke="#0079fe" fill="none" />
  <path d="M 166 363  C 164.32 363  163 361.68  163 360  C 163 358.32  164.32 357  166 357  C 167.68 357  169 358.32  169 360  C 169 361.68  167.68 363  166 363  " fill-rule="nonzero" fill="#0079fe" stroke="none" />
</svg>