<?xml version="1.0" encoding="utf-8"?>
<svg version="1.1" xmlns:xlink="http://www.w3.org/1999/xlink" width="12px" height="12px" viewBox="160 399  12 12" xmlns="http://www.w3.org/2000/svg">
  <path d="M 166 399  C 169.36 399  172 401.64  172 405  C 172 408.36  169.36 411  166 411  C 162.64 411  160 408.36  160 405  C 160 401.64  162.64 399  166 399  Z " fill-rule="nonzero" fill="#ffffff" stroke="none" />
  <path d="M 166 399.5  C 169.08 399.5  171.5 401.92  171.5 405  C 171.5 408.08  169.08 410.5  166 410.5  C 162.92 410.5  160.5 408.08  160.5 405  C 160.5 401.92  162.92 399.5  166 399.5  Z " stroke-width="1" stroke="#0079fe" fill="none" />
  <path d="M 166 408  C 164.32 408  163 406.68  163 405  C 163 403.32  164.32 402  166 402  C 167.68 402  169 403.32  169 405  C 169 406.68  167.68 408  166 408  " fill-rule="nonzero" fill="#0079fe" stroke="none" />
</svg>