<?xml version="1.0" encoding="utf-8"?>
<svg version="1.1" xmlns:xlink="http://www.w3.org/1999/xlink" width="12px" height="12px" viewBox="248 310  12 12" xmlns="http://www.w3.org/2000/svg">
  <path d="M 254 310  C 257.36 310  260 312.64  260 316  C 260 319.36  257.36 322  254 322  C 250.64 322  248 319.36  248 316  C 248 312.64  250.64 310  254 310  Z " fill-rule="nonzero" fill="#ffffff" stroke="none" />
  <path d="M 254 310.5  C 257.08 310.5  259.5 312.92  259.5 316  C 259.5 319.08  257.08 321.5  254 321.5  C 250.92 321.5  248.5 319.08  248.5 316  C 248.5 312.92  250.92 310.5  254 310.5  Z " stroke-width="1" stroke="#0079fe" fill="none" />
  <path d="M 254 319  C 252.32 319  251 317.68  251 316  C 251 314.32  252.32 313  254 313  C 255.68 313  257 314.32  257 316  C 257 317.68  255.68 319  254 319  " fill-rule="nonzero" fill="#0079fe" stroke="none" />
</svg>