<?xml version="1.0" encoding="utf-8"?>
<svg version="1.1" xmlns:xlink="http://www.w3.org/1999/xlink" width="12px" height="12px" viewBox="248 446  12 12" xmlns="http://www.w3.org/2000/svg">
  <path d="M 254 446  C 257.36 446  260 448.64  260 452  C 260 455.36  257.36 458  254 458  C 250.64 458  248 455.36  248 452  C 248 448.64  250.64 446  254 446  Z " fill-rule="nonzero" fill="#ffffff" stroke="none" />
  <path d="M 254 446.5  C 257.08 446.5  259.5 448.92  259.5 452  C 259.5 455.08  257.08 457.5  254 457.5  C 250.92 457.5  248.5 455.08  248.5 452  C 248.5 448.92  250.92 446.5  254 446.5  Z " stroke-width="1" stroke="#0079fe" fill="none" />
  <path d="M 254 455  C 252.32 455  251 453.68  251 452  C 251 450.32  252.32 449  254 449  C 255.68 449  257 450.32  257 452  C 257 453.68  255.68 455  254 455  " fill-rule="nonzero" fill="#0079fe" stroke="none" />
</svg>