<?xml version="1.0" encoding="utf-8"?>
<svg version="1.1" xmlns:xlink="http://www.w3.org/1999/xlink" width="12px" height="12px" viewBox="160 446  12 12" xmlns="http://www.w3.org/2000/svg">
  <path d="M 166 446  C 169.36 446  172 448.64  172 452  C 172 455.36  169.36 458  166 458  C 162.64 458  160 455.36  160 452  C 160 448.64  162.64 446  166 446  Z " fill-rule="nonzero" fill="#ffffff" stroke="none" />
  <path d="M 166 446.5  C 169.08 446.5  171.5 448.92  171.5 452  C 171.5 455.08  169.08 457.5  166 457.5  C 162.92 457.5  160.5 455.08  160.5 452  C 160.5 448.92  162.92 446.5  166 446.5  Z " stroke-width="1" stroke="#0079fe" fill="none" />
  <path d="M 166 455  C 164.32 455  163 453.68  163 452  C 163 450.32  164.32 449  166 449  C 167.68 449  169 450.32  169 452  C 169 453.68  167.68 455  166 455  " fill-rule="nonzero" fill="#0079fe" stroke="none" />
</svg>