<?xml version="1.0" encoding="utf-8"?>
<svg version="1.1" xmlns:xlink="http://www.w3.org/1999/xlink" width="12px" height="12px" viewBox="248 399  12 12" xmlns="http://www.w3.org/2000/svg">
  <path d="M 254 399  C 257.36 399  260 401.64  260 405  C 260 408.36  257.36 411  254 411  C 250.64 411  248 408.36  248 405  C 248 401.64  250.64 399  254 399  Z " fill-rule="nonzero" fill="#ffffff" stroke="none" />
  <path d="M 254 399.5  C 257.08 399.5  259.5 401.92  259.5 405  C 259.5 408.08  257.08 410.5  254 410.5  C 250.92 410.5  248.5 408.08  248.5 405  C 248.5 401.92  250.92 399.5  254 399.5  Z " stroke-width="1" stroke="#0079fe" fill="none" />
  <path d="M 254 408  C 252.32 408  251 406.68  251 405  C 251 403.32  252.32 402  254 402  C 255.68 402  257 403.32  257 405  C 257 406.68  255.68 408  254 408  " fill-rule="nonzero" fill="#0079fe" stroke="none" />
</svg>