<?xml version="1.0" encoding="utf-8"?>
<svg version="1.1" xmlns:xlink="http://www.w3.org/1999/xlink" width="12px" height="12px" viewBox="160 1015  12 12" xmlns="http://www.w3.org/2000/svg">
  <path d="M 166 1015  C 169.36 1015  172 1017.64  172 1021  C 172 1024.36  169.36 1027  166 1027  C 162.64 1027  160 1024.36  160 1021  C 160 1017.64  162.64 1015  166 1015  Z " fill-rule="nonzero" fill="#ffffff" stroke="none" />
  <path d="M 166 1015.5  C 169.08 1015.5  171.5 1017.92  171.5 1021  C 171.5 1024.08  169.08 1026.5  166 1026.5  C 162.92 1026.5  160.5 1024.08  160.5 1021  C 160.5 1017.92  162.92 1015.5  166 1015.5  Z " stroke-width="1" stroke="#0079fe" fill="none" />
  <path d="M 166 1024  C 164.32 1024  163 1022.68  163 1021  C 163 1019.32  164.32 1018  166 1018  C 167.68 1018  169 1019.32  169 1021  C 169 1022.68  167.68 1024  166 1024  " fill-rule="nonzero" fill="#0079fe" stroke="none" />
</svg>