<?xml version="1.0" encoding="utf-8"?>
<svg version="1.1" xmlns:xlink="http://www.w3.org/1999/xlink" width="12px" height="12px" viewBox="254 710  12 12" xmlns="http://www.w3.org/2000/svg">
  <path d="M 260 710  C 263.36 710  266 712.64  266 716  C 266 719.36  263.36 722  260 722  C 256.64 722  254 719.36  254 716  C 254 712.64  256.64 710  260 710  Z " fill-rule="nonzero" fill="#ffffff" stroke="none" />
  <path d="M 260 710.5  C 263.08 710.5  265.5 712.92  265.5 716  C 265.5 719.08  263.08 721.5  260 721.5  C 256.92 721.5  254.5 719.08  254.5 716  C 254.5 712.92  256.92 710.5  260 710.5  Z " stroke-width="1" stroke="#0079fe" fill="none" />
  <path d="M 260 719  C 258.32 719  257 717.68  257 716  C 257 714.32  258.32 713  260 713  C 261.68 713  263 714.32  263 716  C 263 717.68  261.68 719  260 719  " fill-rule="nonzero" fill="#0079fe" stroke="none" />
</svg>