<?xml version="1.0" encoding="utf-8"?>
<svg version="1.1" xmlns:xlink="http://www.w3.org/1999/xlink" width="24px" height="24px" xmlns="http://www.w3.org/2000/svg">
  <g transform="matrix(1 0 0 1 -231 -805 )">
    <path d="M 243 805  C 249.72 805  255 810.28  255 817  C 255 823.72  249.72 829  243 829  C 236.28 829  231 823.72  231 817  C 231 810.28  236.28 805  243 805  Z " fill-rule="nonzero" fill="#ffffff" stroke="none" />
    <path d="M 243 805.5  C 249.44 805.5  254.5 810.56  254.5 817  C 254.5 823.44  249.44 828.5  243 828.5  C 236.56 828.5  231.5 823.44  231.5 817  C 231.5 810.56  236.56 805.5  243 805.5  Z " stroke-width="1" stroke="#0079fe" fill="none" />
  </g>
</svg>