<?xml version="1.0" encoding="utf-8"?>
<svg version="1.1" xmlns:xlink="http://www.w3.org/1999/xlink" width="12px" height="12px" viewBox="326 710  12 12" xmlns="http://www.w3.org/2000/svg">
  <path d="M 332 710  C 335.36 710  338 712.64  338 716  C 338 719.36  335.36 722  332 722  C 328.64 722  326 719.36  326 716  C 326 712.64  328.64 710  332 710  Z " fill-rule="nonzero" fill="#ffffff" stroke="none" />
  <path d="M 332 710.5  C 335.08 710.5  337.5 712.92  337.5 716  C 337.5 719.08  335.08 721.5  332 721.5  C 328.92 721.5  326.5 719.08  326.5 716  C 326.5 712.92  328.92 710.5  332 710.5  Z " stroke-width="1" stroke="#0079fe" fill="none" />
  <path d="M 332 719  C 330.32 719  329 717.68  329 716  C 329 714.32  330.32 713  332 713  C 333.68 713  335 714.32  335 716  C 335 717.68  333.68 719  332 719  " fill-rule="nonzero" fill="#0079fe" stroke="none" />
</svg>