<?xml version="1.0" encoding="utf-8"?>
<svg version="1.1" xmlns:xlink="http://www.w3.org/1999/xlink" width="12px" height="12px" viewBox="404 710  12 12" xmlns="http://www.w3.org/2000/svg">
  <path d="M 410 710  C 413.36 710  416 712.64  416 716  C 416 719.36  413.36 722  410 722  C 406.64 722  404 719.36  404 716  C 404 712.64  406.64 710  410 710  Z " fill-rule="nonzero" fill="#ffffff" stroke="none" />
  <path d="M 410 710.5  C 413.08 710.5  415.5 712.92  415.5 716  C 415.5 719.08  413.08 721.5  410 721.5  C 406.92 721.5  404.5 719.08  404.5 716  C 404.5 712.92  406.92 710.5  410 710.5  Z " stroke-width="1" stroke="#0079fe" fill="none" />
  <path d="M 410 719  C 408.32 719  407 717.68  407 716  C 407 714.32  408.32 713  410 713  C 411.68 713  413 714.32  413 716  C 413 717.68  411.68 719  410 719  " fill-rule="nonzero" fill="#0079fe" stroke="none" />
</svg>