<?xml version="1.0" encoding="utf-8"?>
<svg version="1.1" xmlns:xlink="http://www.w3.org/1999/xlink" width="12px" height="12px" viewBox="160 672  12 12" xmlns="http://www.w3.org/2000/svg">
  <path d="M 166 672  C 169.36 672  172 674.64  172 678  C 172 681.36  169.36 684  166 684  C 162.64 684  160 681.36  160 678  C 160 674.64  162.64 672  166 672  Z " fill-rule="nonzero" fill="#ffffff" stroke="none" />
  <path d="M 166 672.5  C 169.08 672.5  171.5 674.92  171.5 678  C 171.5 681.08  169.08 683.5  166 683.5  C 162.92 683.5  160.5 681.08  160.5 678  C 160.5 674.92  162.92 672.5  166 672.5  Z " stroke-width="1" stroke="#0079fe" fill="none" />
  <path d="M 166 681  C 164.32 681  163 679.68  163 678  C 163 676.32  164.32 675  166 675  C 167.68 675  169 676.32  169 678  C 169 679.68  167.68 681  166 681  " fill-rule="nonzero" fill="#0079fe" stroke="none" />
</svg>