<?xml version="1.0" encoding="utf-8"?>
<svg version="1.1" xmlns:xlink="http://www.w3.org/1999/xlink" width="12px" height="12px" viewBox="460 672  12 12" xmlns="http://www.w3.org/2000/svg">
  <path d="M 466 672  C 469.36 672  472 674.64  472 678  C 472 681.36  469.36 684  466 684  C 462.64 684  460 681.36  460 678  C 460 674.64  462.64 672  466 672  Z " fill-rule="nonzero" fill="#ffffff" stroke="none" />
  <path d="M 466 672.5  C 469.08 672.5  471.5 674.92  471.5 678  C 471.5 681.08  469.08 683.5  466 683.5  C 462.92 683.5  460.5 681.08  460.5 678  C 460.5 674.92  462.92 672.5  466 672.5  Z " stroke-width="1" stroke="#0079fe" fill="none" />
  <path d="M 466 681  C 464.32 681  463 679.68  463 678  C 463 676.32  464.32 675  466 675  C 467.68 675  469 676.32  469 678  C 469 679.68  467.68 681  466 681  " fill-rule="nonzero" fill="#0079fe" stroke="none" />
</svg>