<?xml version="1.0" encoding="utf-8"?>
<svg version="1.1" xmlns:xlink="http://www.w3.org/1999/xlink" width="12px" height="12px" viewBox="160 292  12 12" xmlns="http://www.w3.org/2000/svg">
  <path d="M 166 292  C 169.36 292  172 294.64  172 298  C 172 301.36  169.36 304  166 304  C 162.64 304  160 301.36  160 298  C 160 294.64  162.64 292  166 292  Z " fill-rule="nonzero" fill="#ffffff" stroke="none" />
  <path d="M 166 292.5  C 169.08 292.5  171.5 294.92  171.5 298  C 171.5 301.08  169.08 303.5  166 303.5  C 162.92 303.5  160.5 301.08  160.5 298  C 160.5 294.92  162.92 292.5  166 292.5  Z " stroke-width="1" stroke="#0079fe" fill="none" />
  <path d="M 166 301  C 164.32 301  163 299.68  163 298  C 163 296.32  164.32 295  166 295  C 167.68 295  169 296.32  169 298  C 169 299.68  167.68 301  166 301  " fill-rule="nonzero" fill="#0079fe" stroke="none" />
</svg>