<?xml version="1.0" encoding="utf-8"?>
<svg version="1.1" xmlns:xlink="http://www.w3.org/1999/xlink" width="12px" height="12px" viewBox="160 492  12 12" xmlns="http://www.w3.org/2000/svg">
  <path d="M 166 492  C 169.36 492  172 494.64  172 498  C 172 501.36  169.36 504  166 504  C 162.64 504  160 501.36  160 498  C 160 494.64  162.64 492  166 492  Z " fill-rule="nonzero" fill="#ffffff" stroke="none" />
  <path d="M 166 492.5  C 169.08 492.5  171.5 494.92  171.5 498  C 171.5 501.08  169.08 503.5  166 503.5  C 162.92 503.5  160.5 501.08  160.5 498  C 160.5 494.92  162.92 492.5  166 492.5  Z " stroke-width="1" stroke="#0079fe" fill="none" />
  <path d="M 166 501  C 164.32 501  163 499.68  163 498  C 163 496.32  164.32 495  166 495  C 167.68 495  169 496.32  169 498  C 169 499.68  167.68 501  166 501  " fill-rule="nonzero" fill="#0079fe" stroke="none" />
</svg>