<?xml version="1.0" encoding="utf-8"?>
<svg version="1.1" xmlns:xlink="http://www.w3.org/1999/xlink" width="12px" height="12px" viewBox="160 349  12 12" xmlns="http://www.w3.org/2000/svg">
  <path d="M 166 349  C 169.36 349  172 351.64  172 355  C 172 358.36  169.36 361  166 361  C 162.64 361  160 358.36  160 355  C 160 351.64  162.64 349  166 349  Z " fill-rule="nonzero" fill="#ffffff" stroke="none" />
  <path d="M 166 349.5  C 169.08 349.5  171.5 351.92  171.5 355  C 171.5 358.08  169.08 360.5  166 360.5  C 162.92 360.5  160.5 358.08  160.5 355  C 160.5 351.92  162.92 349.5  166 349.5  Z " stroke-width="1" stroke="#0079fe" fill="none" />
  <path d="M 166 358  C 164.32 358  163 356.68  163 355  C 163 353.32  164.32 352  166 352  C 167.68 352  169 353.32  169 355  C 169 356.68  167.68 358  166 358  " fill-rule="nonzero" fill="#0079fe" stroke="none" />
</svg>