<?xml version="1.0" encoding="utf-8"?>
<svg version="1.1" xmlns:xlink="http://www.w3.org/1999/xlink" width="12px" height="12px" viewBox="160 464  12 12" xmlns="http://www.w3.org/2000/svg">
  <path d="M 166 464  C 169.36 464  172 466.64  172 470  C 172 473.36  169.36 476  166 476  C 162.64 476  160 473.36  160 470  C 160 466.64  162.64 464  166 464  Z " fill-rule="nonzero" fill="#ffffff" stroke="none" />
  <path d="M 166 464.5  C 169.08 464.5  171.5 466.92  171.5 470  C 171.5 473.08  169.08 475.5  166 475.5  C 162.92 475.5  160.5 473.08  160.5 470  C 160.5 466.92  162.92 464.5  166 464.5  Z " stroke-width="1" stroke="#0079fe" fill="none" />
  <path d="M 166 473  C 164.32 473  163 471.68  163 470  C 163 468.32  164.32 467  166 467  C 167.68 467  169 468.32  169 470  C 169 471.68  167.68 473  166 473  " fill-rule="nonzero" fill="#0079fe" stroke="none" />
</svg>