<?xml version="1.0" encoding="utf-8"?>
<svg version="1.1" xmlns:xlink="http://www.w3.org/1999/xlink" width="12px" height="12px" viewBox="160 435  12 12" xmlns="http://www.w3.org/2000/svg">
  <path d="M 166 435  C 169.36 435  172 437.64  172 441  C 172 444.36  169.36 447  166 447  C 162.64 447  160 444.36  160 441  C 160 437.64  162.64 435  166 435  Z " fill-rule="nonzero" fill="#ffffff" stroke="none" />
  <path d="M 166 435.5  C 169.08 435.5  171.5 437.92  171.5 441  C 171.5 444.08  169.08 446.5  166 446.5  C 162.92 446.5  160.5 444.08  160.5 441  C 160.5 437.92  162.92 435.5  166 435.5  Z " stroke-width="1" stroke="#0079fe" fill="none" />
  <path d="M 166 444  C 164.32 444  163 442.68  163 441  C 163 439.32  164.32 438  166 438  C 167.68 438  169 439.32  169 441  C 169 442.68  167.68 444  166 444  " fill-rule="nonzero" fill="#0079fe" stroke="none" />
</svg>