<?xml version="1.0" encoding="utf-8"?>
<svg version="1.1" xmlns:xlink="http://www.w3.org/1999/xlink" width="12px" height="12px" viewBox="160 561  12 12" xmlns="http://www.w3.org/2000/svg">
  <path d="M 166 561  C 169.36 561  172 563.64  172 567  C 172 570.36  169.36 573  166 573  C 162.64 573  160 570.36  160 567  C 160 563.64  162.64 561  166 561  Z " fill-rule="nonzero" fill="#ffffff" stroke="none" />
  <path d="M 166 561.5  C 169.08 561.5  171.5 563.92  171.5 567  C 171.5 570.08  169.08 572.5  166 572.5  C 162.92 572.5  160.5 570.08  160.5 567  C 160.5 563.92  162.92 561.5  166 561.5  Z " stroke-width="1" stroke="#0079fe" fill="none" />
  <path d="M 166 570  C 164.32 570  163 568.68  163 567  C 163 565.32  164.32 564  166 564  C 167.68 564  169 565.32  169 567  C 169 568.68  167.68 570  166 570  " fill-rule="nonzero" fill="#0079fe" stroke="none" />
</svg>