<?xml version="1.0" encoding="utf-8"?>
<svg version="1.1" xmlns:xlink="http://www.w3.org/1999/xlink" width="12px" height="12px" viewBox="160 661  12 12" xmlns="http://www.w3.org/2000/svg">
  <path d="M 166 661  C 169.36 661  172 663.64  172 667  C 172 670.36  169.36 673  166 673  C 162.64 673  160 670.36  160 667  C 160 663.64  162.64 661  166 661  Z " fill-rule="nonzero" fill="#ffffff" stroke="none" />
  <path d="M 166 661.5  C 169.08 661.5  171.5 663.92  171.5 667  C 171.5 670.08  169.08 672.5  166 672.5  C 162.92 672.5  160.5 670.08  160.5 667  C 160.5 663.92  162.92 661.5  166 661.5  Z " stroke-width="1" stroke="#0079fe" fill="none" />
  <path d="M 166 670  C 164.32 670  163 668.68  163 667  C 163 665.32  164.32 664  166 664  C 167.68 664  169 665.32  169 667  C 169 668.68  167.68 670  166 670  " fill-rule="nonzero" fill="#0079fe" stroke="none" />
</svg>