<?xml version="1.0" encoding="utf-8"?>
<svg version="1.1" xmlns:xlink="http://www.w3.org/1999/xlink" width="12px" height="12px" viewBox="160 521  12 12" xmlns="http://www.w3.org/2000/svg">
  <path d="M 166 521  C 169.36 521  172 523.64  172 527  C 172 530.36  169.36 533  166 533  C 162.64 533  160 530.36  160 527  C 160 523.64  162.64 521  166 521  Z " fill-rule="nonzero" fill="#ffffff" stroke="none" />
  <path d="M 166 521.5  C 169.08 521.5  171.5 523.92  171.5 527  C 171.5 530.08  169.08 532.5  166 532.5  C 162.92 532.5  160.5 530.08  160.5 527  C 160.5 523.92  162.92 521.5  166 521.5  Z " stroke-width="1" stroke="#0079fe" fill="none" />
  <path d="M 166 530  C 164.32 530  163 528.68  163 527  C 163 525.32  164.32 524  166 524  C 167.68 524  169 525.32  169 527  C 169 528.68  167.68 530  166 530  " fill-rule="nonzero" fill="#0079fe" stroke="none" />
</svg>