<?xml version="1.0" encoding="utf-8"?>
<svg version="1.1" xmlns:xlink="http://www.w3.org/1999/xlink" width="12px" height="12px" viewBox="244 561  12 12" xmlns="http://www.w3.org/2000/svg">
  <path d="M 250 561  C 253.36 561  256 563.64  256 567  C 256 570.36  253.36 573  250 573  C 246.64 573  244 570.36  244 567  C 244 563.64  246.64 561  250 561  Z " fill-rule="nonzero" fill="#ffffff" stroke="none" />
  <path d="M 250 561.5  C 253.08 561.5  255.5 563.92  255.5 567  C 255.5 570.08  253.08 572.5  250 572.5  C 246.92 572.5  244.5 570.08  244.5 567  C 244.5 563.92  246.92 561.5  250 561.5  Z " stroke-width="1" stroke="#0079fe" fill="none" />
  <path d="M 250 570  C 248.32 570  247 568.68  247 567  C 247 565.32  248.32 564  250 564  C 251.68 564  253 565.32  253 567  C 253 568.68  251.68 570  250 570  " fill-rule="nonzero" fill="#0079fe" stroke="none" />
</svg>