<?xml version="1.0" encoding="utf-8"?>
<svg version="1.1" xmlns:xlink="http://www.w3.org/1999/xlink" width="12px" height="12px" viewBox="248 122  12 12" xmlns="http://www.w3.org/2000/svg">
  <path d="M 254 122  C 257.36 122  260 124.64  260 128  C 260 131.36  257.36 134  254 134  C 250.64 134  248 131.36  248 128  C 248 124.64  250.64 122  254 122  Z " fill-rule="nonzero" fill="#ffffff" stroke="none" />
  <path d="M 254 122.5  C 257.08 122.5  259.5 124.92  259.5 128  C 259.5 131.08  257.08 133.5  254 133.5  C 250.92 133.5  248.5 131.08  248.5 128  C 248.5 124.92  250.92 122.5  254 122.5  Z " stroke-width="1" stroke="#0079fe" fill="none" />
  <path d="M 254 131  C 252.32 131  251 129.68  251 128  C 251 126.32  252.32 125  254 125  C 255.68 125  257 126.32  257 128  C 257 129.68  255.68 131  254 131  " fill-rule="nonzero" fill="#0079fe" stroke="none" />
</svg>