<?xml version="1.0" encoding="utf-8"?>
<svg version="1.1" xmlns:xlink="http://www.w3.org/1999/xlink" width="12px" height="12px" viewBox="160 478  12 12" xmlns="http://www.w3.org/2000/svg">
  <path d="M 166 478  C 169.36 478  172 480.64  172 484  C 172 487.36  169.36 490  166 490  C 162.64 490  160 487.36  160 484  C 160 480.64  162.64 478  166 478  Z " fill-rule="nonzero" fill="#ffffff" stroke="none" />
  <path d="M 166 478.5  C 169.08 478.5  171.5 480.92  171.5 484  C 171.5 487.08  169.08 489.5  166 489.5  C 162.92 489.5  160.5 487.08  160.5 484  C 160.5 480.92  162.92 478.5  166 478.5  Z " stroke-width="1" stroke="#0079fe" fill="none" />
  <path d="M 166 487  C 164.32 487  163 485.68  163 484  C 163 482.32  164.32 481  166 481  C 167.68 481  169 482.32  169 484  C 169 485.68  167.68 487  166 487  " fill-rule="nonzero" fill="#0079fe" stroke="none" />
</svg>