<?xml version="1.0" encoding="utf-8"?>
<svg version="1.1" xmlns:xlink="http://www.w3.org/1999/xlink" width="12px" height="12px" viewBox="160 332  12 12" xmlns="http://www.w3.org/2000/svg">
  <path d="M 166 332  C 169.36 332  172 334.64  172 338  C 172 341.36  169.36 344  166 344  C 162.64 344  160 341.36  160 338  C 160 334.64  162.64 332  166 332  Z " fill-rule="nonzero" fill="#ffffff" stroke="none" />
  <path d="M 166 332.5  C 169.08 332.5  171.5 334.92  171.5 338  C 171.5 341.08  169.08 343.5  166 343.5  C 162.92 343.5  160.5 341.08  160.5 338  C 160.5 334.92  162.92 332.5  166 332.5  Z " stroke-width="1" stroke="#0079fe" fill="none" />
  <path d="M 166 341  C 164.32 341  163 339.68  163 338  C 163 336.32  164.32 335  166 335  C 167.68 335  169 336.32  169 338  C 169 339.68  167.68 341  166 341  " fill-rule="nonzero" fill="#0079fe" stroke="none" />
</svg>