<?xml version="1.0" encoding="utf-8"?>
<svg version="1.1" xmlns:xlink="http://www.w3.org/1999/xlink" width="12px" height="12px" viewBox="248 478  12 12" xmlns="http://www.w3.org/2000/svg">
  <path d="M 254 478  C 257.36 478  260 480.64  260 484  C 260 487.36  257.36 490  254 490  C 250.64 490  248 487.36  248 484  C 248 480.64  250.64 478  254 478  Z " fill-rule="nonzero" fill="#ffffff" stroke="none" />
  <path d="M 254 478.5  C 257.08 478.5  259.5 480.92  259.5 484  C 259.5 487.08  257.08 489.5  254 489.5  C 250.92 489.5  248.5 487.08  248.5 484  C 248.5 480.92  250.92 478.5  254 478.5  Z " stroke-width="1" stroke="#0079fe" fill="none" />
  <path d="M 254 487  C 252.32 487  251 485.68  251 484  C 251 482.32  252.32 481  254 481  C 255.68 481  257 482.32  257 484  C 257 485.68  255.68 487  254 487  " fill-rule="nonzero" fill="#0079fe" stroke="none" />
</svg>