<?xml version="1.0" encoding="utf-8"?>
<svg version="1.1" xmlns:xlink="http://www.w3.org/1999/xlink" width="12px" height="12px" viewBox="248 513  12 12" xmlns="http://www.w3.org/2000/svg">
  <path d="M 254 513  C 257.36 513  260 515.64  260 519  C 260 522.36  257.36 525  254 525  C 250.64 525  248 522.36  248 519  C 248 515.64  250.64 513  254 513  Z " fill-rule="nonzero" fill="#ffffff" stroke="none" />
  <path d="M 254 513.5  C 257.08 513.5  259.5 515.92  259.5 519  C 259.5 522.08  257.08 524.5  254 524.5  C 250.92 524.5  248.5 522.08  248.5 519  C 248.5 515.92  250.92 513.5  254 513.5  Z " stroke-width="1" stroke="#0079fe" fill="none" />
  <path d="M 254 522  C 252.32 522  251 520.68  251 519  C 251 517.32  252.32 516  254 516  C 255.68 516  257 517.32  257 519  C 257 520.68  255.68 522  254 522  " fill-rule="nonzero" fill="#0079fe" stroke="none" />
</svg>