<?xml version="1.0" encoding="utf-8"?>
<svg version="1.1" xmlns:xlink="http://www.w3.org/1999/xlink" width="12px" height="12px" viewBox="404 264  12 12" xmlns="http://www.w3.org/2000/svg">
  <path d="M 410 264  C 413.36 264  416 266.64  416 270  C 416 273.36  413.36 276  410 276  C 406.64 276  404 273.36  404 270  C 404 266.64  406.64 264  410 264  Z " fill-rule="nonzero" fill="#ffffff" stroke="none" />
  <path d="M 410 264.5  C 413.08 264.5  415.5 266.92  415.5 270  C 415.5 273.08  413.08 275.5  410 275.5  C 406.92 275.5  404.5 273.08  404.5 270  C 404.5 266.92  406.92 264.5  410 264.5  Z " stroke-width="1" stroke="#0079fe" fill="none" />
  <path d="M 410 273  C 408.32 273  407 271.68  407 270  C 407 268.32  408.32 267  410 267  C 411.68 267  413 268.32  413 270  C 413 271.68  411.68 273  410 273  " fill-rule="nonzero" fill="#0079fe" stroke="none" />
</svg>