<?xml version="1.0" encoding="utf-8"?>
<svg version="1.1" xmlns:xlink="http://www.w3.org/1999/xlink" width="12px" height="12px" viewBox="326 264  12 12" xmlns="http://www.w3.org/2000/svg">
  <path d="M 332 264  C 335.36 264  338 266.64  338 270  C 338 273.36  335.36 276  332 276  C 328.64 276  326 273.36  326 270  C 326 266.64  328.64 264  332 264  Z " fill-rule="nonzero" fill="#ffffff" stroke="none" />
  <path d="M 332 264.5  C 335.08 264.5  337.5 266.92  337.5 270  C 337.5 273.08  335.08 275.5  332 275.5  C 328.92 275.5  326.5 273.08  326.5 270  C 326.5 266.92  328.92 264.5  332 264.5  Z " stroke-width="1" stroke="#0079fe" fill="none" />
  <path d="M 332 273  C 330.32 273  329 271.68  329 270  C 329 268.32  330.32 267  332 267  C 333.68 267  335 268.32  335 270  C 335 271.68  333.68 273  332 273  " fill-rule="nonzero" fill="#0079fe" stroke="none" />
</svg>