<?xml version="1.0" encoding="utf-8"?>
<svg version="1.1" xmlns:xlink="http://www.w3.org/1999/xlink" width="12px" height="12px" viewBox="232 396  12 12" xmlns="http://www.w3.org/2000/svg">
  <path d="M 238 396  C 241.36 396  244 398.64  244 402  C 244 405.36  241.36 408  238 408  C 234.64 408  232 405.36  232 402  C 232 398.64  234.64 396  238 396  Z " fill-rule="nonzero" fill="#ffffff" stroke="none" />
  <path d="M 238 396.5  C 241.08 396.5  243.5 398.92  243.5 402  C 243.5 405.08  241.08 407.5  238 407.5  C 234.92 407.5  232.5 405.08  232.5 402  C 232.5 398.92  234.92 396.5  238 396.5  Z " stroke-width="1" stroke="#0079fe" fill="none" />
  <path d="M 238 405  C 236.32 405  235 403.68  235 402  C 235 400.32  236.32 399  238 399  C 239.68 399  241 400.32  241 402  C 241 403.68  239.68 405  238 405  " fill-rule="nonzero" fill="#0079fe" stroke="none" />
</svg>