<?xml version="1.0" encoding="utf-8"?>
<svg version="1.1" xmlns:xlink="http://www.w3.org/1999/xlink" width="12px" height="12px" viewBox="160 504  12 12" xmlns="http://www.w3.org/2000/svg">
  <path d="M 166 504  C 169.36 504  172 506.64  172 510  C 172 513.36  169.36 516  166 516  C 162.64 516  160 513.36  160 510  C 160 506.64  162.64 504  166 504  Z " fill-rule="nonzero" fill="#ffffff" stroke="none" />
  <path d="M 166 504.5  C 169.08 504.5  171.5 506.92  171.5 510  C 171.5 513.08  169.08 515.5  166 515.5  C 162.92 515.5  160.5 513.08  160.5 510  C 160.5 506.92  162.92 504.5  166 504.5  Z " stroke-width="1" stroke="#0079fe" fill="none" />
  <path d="M 166 513  C 164.32 513  163 511.68  163 510  C 163 508.32  164.32 507  166 507  C 167.68 507  169 508.32  169 510  C 169 511.68  167.68 513  166 513  " fill-rule="nonzero" fill="#0079fe" stroke="none" />
</svg>