<?xml version="1.0" encoding="utf-8"?>
<svg version="1.1" xmlns:xlink="http://www.w3.org/1999/xlink" width="12px" height="12px" viewBox="232 504  12 12" xmlns="http://www.w3.org/2000/svg">
  <path d="M 238 504  C 241.36 504  244 506.64  244 510  C 244 513.36  241.36 516  238 516  C 234.64 516  232 513.36  232 510  C 232 506.64  234.64 504  238 504  Z " fill-rule="nonzero" fill="#ffffff" stroke="none" />
  <path d="M 238 504.5  C 241.08 504.5  243.5 506.92  243.5 510  C 243.5 513.08  241.08 515.5  238 515.5  C 234.92 515.5  232.5 513.08  232.5 510  C 232.5 506.92  234.92 504.5  238 504.5  Z " stroke-width="1" stroke="#0079fe" fill="none" />
  <path d="M 238 513  C 236.32 513  235 511.68  235 510  C 235 508.32  236.32 507  238 507  C 239.68 507  241 508.32  241 510  C 241 511.68  239.68 513  238 513  " fill-rule="nonzero" fill="#0079fe" stroke="none" />
</svg>