<?xml version="1.0" encoding="utf-8"?>
<svg version="1.1" xmlns:xlink="http://www.w3.org/1999/xlink" width="12px" height="12px" viewBox="160 336  12 12" xmlns="http://www.w3.org/2000/svg">
  <path d="M 166 336  C 169.36 336  172 338.64  172 342  C 172 345.36  169.36 348  166 348  C 162.64 348  160 345.36  160 342  C 160 338.64  162.64 336  166 336  Z " fill-rule="nonzero" fill="#ffffff" stroke="none" />
  <path d="M 166 336.5  C 169.08 336.5  171.5 338.92  171.5 342  C 171.5 345.08  169.08 347.5  166 347.5  C 162.92 347.5  160.5 345.08  160.5 342  C 160.5 338.92  162.92 336.5  166 336.5  Z " stroke-width="1" stroke="#0079fe" fill="none" />
  <path d="M 166 345  C 164.32 345  163 343.68  163 342  C 163 340.32  164.32 339  166 339  C 167.68 339  169 340.32  169 342  C 169 343.68  167.68 345  166 345  " fill-rule="nonzero" fill="#0079fe" stroke="none" />
</svg>