<?xml version="1.0" encoding="utf-8"?>
<svg version="1.1" xmlns:xlink="http://www.w3.org/1999/xlink" width="12px" height="12px" viewBox="325 336  12 12" xmlns="http://www.w3.org/2000/svg">
  <path d="M 331 336  C 334.36 336  337 338.64  337 342  C 337 345.36  334.36 348  331 348  C 327.64 348  325 345.36  325 342  C 325 338.64  327.64 336  331 336  Z " fill-rule="nonzero" fill="#ffffff" stroke="none" />
  <path d="M 331 336.5  C 334.08 336.5  336.5 338.92  336.5 342  C 336.5 345.08  334.08 347.5  331 347.5  C 327.92 347.5  325.5 345.08  325.5 342  C 325.5 338.92  327.92 336.5  331 336.5  Z " stroke-width="1" stroke="#0079fe" fill="none" />
  <path d="M 331 345  C 329.32 345  328 343.68  328 342  C 328 340.32  329.32 339  331 339  C 332.68 339  334 340.32  334 342  C 334 343.68  332.68 345  331 345  " fill-rule="nonzero" fill="#0079fe" stroke="none" />
</svg>