<?xml version="1.0" encoding="utf-8"?>
<svg version="1.1" xmlns:xlink="http://www.w3.org/1999/xlink" width="12px" height="12px" viewBox="290 477  12 12" xmlns="http://www.w3.org/2000/svg">
  <path d="M 296 477  C 299.36 477  302 479.64  302 483  C 302 486.36  299.36 489  296 489  C 292.64 489  290 486.36  290 483  C 290 479.64  292.64 477  296 477  Z " fill-rule="nonzero" fill="#ffffff" stroke="none" />
  <path d="M 296 477.5  C 299.08 477.5  301.5 479.92  301.5 483  C 301.5 486.08  299.08 488.5  296 488.5  C 292.92 488.5  290.5 486.08  290.5 483  C 290.5 479.92  292.92 477.5  296 477.5  Z " stroke-width="1" stroke="#0079fe" fill="none" />
  <path d="M 296 486  C 294.32 486  293 484.68  293 483  C 293 481.32  294.32 480  296 480  C 297.68 480  299 481.32  299 483  C 299 484.68  297.68 486  296 486  " fill-rule="nonzero" fill="#0079fe" stroke="none" />
</svg>