<?xml version="1.0" encoding="utf-8"?>
<svg version="1.1" xmlns:xlink="http://www.w3.org/1999/xlink" width="12px" height="12px" viewBox="374 477  12 12" xmlns="http://www.w3.org/2000/svg">
  <path d="M 380 477  C 383.36 477  386 479.64  386 483  C 386 486.36  383.36 489  380 489  C 376.64 489  374 486.36  374 483  C 374 479.64  376.64 477  380 477  Z " fill-rule="nonzero" fill="#ffffff" stroke="none" />
  <path d="M 380 477.5  C 383.08 477.5  385.5 479.92  385.5 483  C 385.5 486.08  383.08 488.5  380 488.5  C 376.92 488.5  374.5 486.08  374.5 483  C 374.5 479.92  376.92 477.5  380 477.5  Z " stroke-width="1" stroke="#0079fe" fill="none" />
  <path d="M 380 486  C 378.32 486  377 484.68  377 483  C 377 481.32  378.32 480  380 480  C 381.68 480  383 481.32  383 483  C 383 484.68  381.68 486  380 486  " fill-rule="nonzero" fill="#0079fe" stroke="none" />
</svg>