<?xml version="1.0" encoding="utf-8"?>
<svg version="1.1" xmlns:xlink="http://www.w3.org/1999/xlink" width="12px" height="12px" viewBox="310 1332  12 12" xmlns="http://www.w3.org/2000/svg">
  <path d="M 316 1332  C 319.36 1332  322 1334.64  322 1338  C 322 1341.36  319.36 1344  316 1344  C 312.64 1344  310 1341.36  310 1338  C 310 1334.64  312.64 1332  316 1332  Z " fill-rule="nonzero" fill="#ffffff" stroke="none" />
  <path d="M 316 1332.5  C 319.08 1332.5  321.5 1334.92  321.5 1338  C 321.5 1341.08  319.08 1343.5  316 1343.5  C 312.92 1343.5  310.5 1341.08  310.5 1338  C 310.5 1334.92  312.92 1332.5  316 1332.5  Z " stroke-width="1" stroke="#0079fe" fill="none" />
  <path d="M 316 1341  C 314.32 1341  313 1339.68  313 1338  C 313 1336.32  314.32 1335  316 1335  C 317.68 1335  319 1336.32  319 1338  C 319 1339.68  317.68 1341  316 1341  " fill-rule="nonzero" fill="#0079fe" stroke="none" />
</svg>