<?xml version="1.0" encoding="utf-8"?>
<svg version="1.1" xmlns:xlink="http://www.w3.org/1999/xlink" width="12px" height="12px" viewBox="260 1069  12 12" xmlns="http://www.w3.org/2000/svg">
  <path d="M 266 1069  C 269.36 1069  272 1071.64  272 1075  C 272 1078.36  269.36 1081  266 1081  C 262.64 1081  260 1078.36  260 1075  C 260 1071.64  262.64 1069  266 1069  Z " fill-rule="nonzero" fill="#ffffff" stroke="none" />
  <path d="M 266 1069.5  C 269.08 1069.5  271.5 1071.92  271.5 1075  C 271.5 1078.08  269.08 1080.5  266 1080.5  C 262.92 1080.5  260.5 1078.08  260.5 1075  C 260.5 1071.92  262.92 1069.5  266 1069.5  Z " stroke-width="1" stroke="#0079fe" fill="none" />
  <path d="M 266 1078  C 264.32 1078  263 1076.68  263 1075  C 263 1073.32  264.32 1072  266 1072  C 267.68 1072  269 1073.32  269 1075  C 269 1076.68  267.68 1078  266 1078  " fill-rule="nonzero" fill="#0079fe" stroke="none" />
</svg>