<?xml version="1.0" encoding="utf-8"?>
<svg version="1.1" xmlns:xlink="http://www.w3.org/1999/xlink" width="12px" height="12px" viewBox="360 1069  12 12" xmlns="http://www.w3.org/2000/svg">
  <path d="M 366 1069  C 369.36 1069  372 1071.64  372 1075  C 372 1078.36  369.36 1081  366 1081  C 362.64 1081  360 1078.36  360 1075  C 360 1071.64  362.64 1069  366 1069  Z " fill-rule="nonzero" fill="#ffffff" stroke="none" />
  <path d="M 366 1069.5  C 369.08 1069.5  371.5 1071.92  371.5 1075  C 371.5 1078.08  369.08 1080.5  366 1080.5  C 362.92 1080.5  360.5 1078.08  360.5 1075  C 360.5 1071.92  362.92 1069.5  366 1069.5  Z " stroke-width="1" stroke="#0079fe" fill="none" />
  <path d="M 366 1078  C 364.32 1078  363 1076.68  363 1075  C 363 1073.32  364.32 1072  366 1072  C 367.68 1072  369 1073.32  369 1075  C 369 1076.68  367.68 1078  366 1078  " fill-rule="nonzero" fill="#0079fe" stroke="none" />
</svg>