<?xml version="1.0" encoding="utf-8"?>
<svg version="1.1" xmlns:xlink="http://www.w3.org/1999/xlink" width="12px" height="12px" viewBox="460 1069  12 12" xmlns="http://www.w3.org/2000/svg">
  <path d="M 466 1069  C 469.36 1069  472 1071.64  472 1075  C 472 1078.36  469.36 1081  466 1081  C 462.64 1081  460 1078.36  460 1075  C 460 1071.64  462.64 1069  466 1069  Z " fill-rule="nonzero" fill="#ffffff" stroke="none" />
  <path d="M 466 1069.5  C 469.08 1069.5  471.5 1071.92  471.5 1075  C 471.5 1078.08  469.08 1080.5  466 1080.5  C 462.92 1080.5  460.5 1078.08  460.5 1075  C 460.5 1071.92  462.92 1069.5  466 1069.5  Z " stroke-width="1" stroke="#0079fe" fill="none" />
  <path d="M 466 1078  C 464.32 1078  463 1076.68  463 1075  C 463 1073.32  464.32 1072  466 1072  C 467.68 1072  469 1073.32  469 1075  C 469 1076.68  467.68 1078  466 1078  " fill-rule="nonzero" fill="#0079fe" stroke="none" />
</svg>