<?xml version="1.0" encoding="utf-8"?>
<svg version="1.1" xmlns:xlink="http://www.w3.org/1999/xlink" width="12px" height="12px" viewBox="232 683  12 12" xmlns="http://www.w3.org/2000/svg">
  <path d="M 238 683  C 241.36 683  244 685.64  244 689  C 244 692.36  241.36 695  238 695  C 234.64 695  232 692.36  232 689  C 232 685.64  234.64 683  238 683  Z " fill-rule="nonzero" fill="#ffffff" stroke="none" />
  <path d="M 238 683.5  C 241.08 683.5  243.5 685.92  243.5 689  C 243.5 692.08  241.08 694.5  238 694.5  C 234.92 694.5  232.5 692.08  232.5 689  C 232.5 685.92  234.92 683.5  238 683.5  Z " stroke-width="1" stroke="#0079fe" fill="none" />
  <path d="M 238 692  C 236.32 692  235 690.68  235 689  C 235 687.32  236.32 686  238 686  C 239.68 686  241 687.32  241 689  C 241 690.68  239.68 692  238 692  " fill-rule="nonzero" fill="#0079fe" stroke="none" />
</svg>