<?xml version="1.0" encoding="utf-8"?>
<svg version="1.1" xmlns:xlink="http://www.w3.org/1999/xlink" width="12px" height="12px" viewBox="160 683  12 12" xmlns="http://www.w3.org/2000/svg">
  <path d="M 166 683  C 169.36 683  172 685.64  172 689  C 172 692.36  169.36 695  166 695  C 162.64 695  160 692.36  160 689  C 160 685.64  162.64 683  166 683  Z " fill-rule="nonzero" fill="#ffffff" stroke="none" />
  <path d="M 166 683.5  C 169.08 683.5  171.5 685.92  171.5 689  C 171.5 692.08  169.08 694.5  166 694.5  C 162.92 694.5  160.5 692.08  160.5 689  C 160.5 685.92  162.92 683.5  166 683.5  Z " stroke-width="1" stroke="#0079fe" fill="none" />
  <path d="M 166 692  C 164.32 692  163 690.68  163 689  C 163 687.32  164.32 686  166 686  C 167.68 686  169 687.32  169 689  C 169 690.68  167.68 692  166 692  " fill-rule="nonzero" fill="#0079fe" stroke="none" />
</svg>