<?xml version="1.0" encoding="utf-8"?>
<svg version="1.1" xmlns:xlink="http://www.w3.org/1999/xlink" width="12px" height="12px" viewBox="310 683  12 12" xmlns="http://www.w3.org/2000/svg">
  <path d="M 316 683  C 319.36 683  322 685.64  322 689  C 322 692.36  319.36 695  316 695  C 312.64 695  310 692.36  310 689  C 310 685.64  312.64 683  316 683  Z " fill-rule="nonzero" fill="#ffffff" stroke="none" />
  <path d="M 316 683.5  C 319.08 683.5  321.5 685.92  321.5 689  C 321.5 692.08  319.08 694.5  316 694.5  C 312.92 694.5  310.5 692.08  310.5 689  C 310.5 685.92  312.92 683.5  316 683.5  Z " stroke-width="1" stroke="#0079fe" fill="none" />
  <path d="M 316 692  C 314.32 692  313 690.68  313 689  C 313 687.32  314.32 686  316 686  C 317.68 686  319 687.32  319 689  C 319 690.68  317.68 692  316 692  " fill-rule="nonzero" fill="#0079fe" stroke="none" />
</svg>