<?xml version="1.0" encoding="utf-8"?>
<svg version="1.1" xmlns:xlink="http://www.w3.org/1999/xlink" width="12px" height="12px" viewBox="260 346  12 12" xmlns="http://www.w3.org/2000/svg">
  <path d="M 266 346  C 269.36 346  272 348.64  272 352  C 272 355.36  269.36 358  266 358  C 262.64 358  260 355.36  260 352  C 260 348.64  262.64 346  266 346  Z " fill-rule="nonzero" fill="#ffffff" stroke="none" />
  <path d="M 266 346.5  C 269.08 346.5  271.5 348.92  271.5 352  C 271.5 355.08  269.08 357.5  266 357.5  C 262.92 357.5  260.5 355.08  260.5 352  C 260.5 348.92  262.92 346.5  266 346.5  Z " stroke-width="1" stroke="#0079fe" fill="none" />
  <path d="M 266 355  C 264.32 355  263 353.68  263 352  C 263 350.32  264.32 349  266 349  C 267.68 349  269 350.32  269 352  C 269 353.68  267.68 355  266 355  " fill-rule="nonzero" fill="#0079fe" stroke="none" />
</svg>