<?xml version="1.0" encoding="utf-8"?>
<svg version="1.1" xmlns:xlink="http://www.w3.org/1999/xlink" width="12px" height="12px" viewBox="245 806  12 12" xmlns="http://www.w3.org/2000/svg">
  <path d="M 251 806  C 254.36 806  257 808.64  257 812  C 257 815.36  254.36 818  251 818  C 247.64 818  245 815.36  245 812  C 245 808.64  247.64 806  251 806  Z " fill-rule="nonzero" fill="#ffffff" stroke="none" />
  <path d="M 251 806.5  C 254.08 806.5  256.5 808.92  256.5 812  C 256.5 815.08  254.08 817.5  251 817.5  C 247.92 817.5  245.5 815.08  245.5 812  C 245.5 808.92  247.92 806.5  251 806.5  Z " stroke-width="1" stroke="#0079fe" fill="none" />
  <path d="M 251 815  C 249.32 815  248 813.68  248 812  C 248 810.32  249.32 809  251 809  C 252.68 809  254 810.32  254 812  C 254 813.68  252.68 815  251 815  " fill-rule="nonzero" fill="#0079fe" stroke="none" />
</svg>