<?xml version="1.0" encoding="utf-8"?>
<svg version="1.1" xmlns:xlink="http://www.w3.org/1999/xlink" width="12px" height="12px" viewBox="123 340  12 12" xmlns="http://www.w3.org/2000/svg">
  <path d="M 129 340  C 132.36 340  135 342.64  135 346  C 135 349.36  132.36 352  129 352  C 125.64 352  123 349.36  123 346  C 123 342.64  125.64 340  129 340  Z " fill-rule="nonzero" fill="#ffffff" stroke="none" />
  <path d="M 129 340.5  C 132.08 340.5  134.5 342.92  134.5 346  C 134.5 349.08  132.08 351.5  129 351.5  C 125.92 351.5  123.5 349.08  123.5 346  C 123.5 342.92  125.92 340.5  129 340.5  Z " stroke-width="1" stroke="#0079fe" fill="none" />
  <path d="M 129 349  C 127.32 349  126 347.68  126 346  C 126 344.32  127.32 343  129 343  C 130.68 343  132 344.32  132 346  C 132 347.68  130.68 349  129 349  " fill-rule="nonzero" fill="#0079fe" stroke="none" />
</svg>