<?xml version="1.0" encoding="utf-8"?>
<svg version="1.1" xmlns:xlink="http://www.w3.org/1999/xlink" width="12px" height="12px" viewBox="123 489  12 12" xmlns="http://www.w3.org/2000/svg">
  <path d="M 129 489  C 132.36 489  135 491.64  135 495  C 135 498.36  132.36 501  129 501  C 125.64 501  123 498.36  123 495  C 123 491.64  125.64 489  129 489  Z " fill-rule="nonzero" fill="#ffffff" stroke="none" />
  <path d="M 129 489.5  C 132.08 489.5  134.5 491.92  134.5 495  C 134.5 498.08  132.08 500.5  129 500.5  C 125.92 500.5  123.5 498.08  123.5 495  C 123.5 491.92  125.92 489.5  129 489.5  Z " stroke-width="1" stroke="#0079fe" fill="none" />
  <path d="M 129 498  C 127.32 498  126 496.68  126 495  C 126 493.32  127.32 492  129 492  C 130.68 492  132 493.32  132 495  C 132 496.68  130.68 498  129 498  " fill-rule="nonzero" fill="#0079fe" stroke="none" />
</svg>