<?xml version="1.0" encoding="utf-8"?>
<svg version="1.1" xmlns:xlink="http://www.w3.org/1999/xlink" width="12px" height="12px" viewBox="123 459  12 12" xmlns="http://www.w3.org/2000/svg">
  <path d="M 129 459  C 132.36 459  135 461.64  135 465  C 135 468.36  132.36 471  129 471  C 125.64 471  123 468.36  123 465  C 123 461.64  125.64 459  129 459  Z " fill-rule="nonzero" fill="#ffffff" stroke="none" />
  <path d="M 129 459.5  C 132.08 459.5  134.5 461.92  134.5 465  C 134.5 468.08  132.08 470.5  129 470.5  C 125.92 470.5  123.5 468.08  123.5 465  C 123.5 461.92  125.92 459.5  129 459.5  Z " stroke-width="1" stroke="#0079fe" fill="none" />
  <path d="M 129 468  C 127.32 468  126 466.68  126 465  C 126 463.32  127.32 462  129 462  C 130.68 462  132 463.32  132 465  C 132 466.68  130.68 468  129 468  " fill-rule="nonzero" fill="#0079fe" stroke="none" />
</svg>