<?xml version="1.0" encoding="utf-8"?>
<svg version="1.1" xmlns:xlink="http://www.w3.org/1999/xlink" width="12px" height="12px" viewBox="123 548  12 12" xmlns="http://www.w3.org/2000/svg">
  <path d="M 129 548  C 132.36 548  135 550.64  135 554  C 135 557.36  132.36 560  129 560  C 125.64 560  123 557.36  123 554  C 123 550.64  125.64 548  129 548  Z " fill-rule="nonzero" fill="#ffffff" stroke="none" />
  <path d="M 129 548.5  C 132.08 548.5  134.5 550.92  134.5 554  C 134.5 557.08  132.08 559.5  129 559.5  C 125.92 559.5  123.5 557.08  123.5 554  C 123.5 550.92  125.92 548.5  129 548.5  Z " stroke-width="1" stroke="#0079fe" fill="none" />
  <path d="M 129 557  C 127.32 557  126 555.68  126 554  C 126 552.32  127.32 551  129 551  C 130.68 551  132 552.32  132 554  C 132 555.68  130.68 557  129 557  " fill-rule="nonzero" fill="#0079fe" stroke="none" />
</svg>