<?xml version="1.0" encoding="utf-8"?>
<svg version="1.1" xmlns:xlink="http://www.w3.org/1999/xlink" width="12px" height="12px" viewBox="123 578  12 12" xmlns="http://www.w3.org/2000/svg">
  <path d="M 129 578  C 132.36 578  135 580.64  135 584  C 135 587.36  132.36 590  129 590  C 125.64 590  123 587.36  123 584  C 123 580.64  125.64 578  129 578  Z " fill-rule="nonzero" fill="#ffffff" stroke="none" />
  <path d="M 129 578.5  C 132.08 578.5  134.5 580.92  134.5 584  C 134.5 587.08  132.08 589.5  129 589.5  C 125.92 589.5  123.5 587.08  123.5 584  C 123.5 580.92  125.92 578.5  129 578.5  Z " stroke-width="1" stroke="#0079fe" fill="none" />
  <path d="M 129 587  C 127.32 587  126 585.68  126 584  C 126 582.32  127.32 581  129 581  C 130.68 581  132 582.32  132 584  C 132 585.68  130.68 587  129 587  " fill-rule="nonzero" fill="#0079fe" stroke="none" />
</svg>