<?xml version="1.0" encoding="utf-8"?>
<svg version="1.1" xmlns:xlink="http://www.w3.org/1999/xlink" width="12px" height="12px" viewBox="160 917  12 12" xmlns="http://www.w3.org/2000/svg">
  <path d="M 166 917  C 169.36 917  172 919.64  172 923  C 172 926.36  169.36 929  166 929  C 162.64 929  160 926.36  160 923  C 160 919.64  162.64 917  166 917  Z " fill-rule="nonzero" fill="#ffffff" stroke="none" />
  <path d="M 166 917.5  C 169.08 917.5  171.5 919.92  171.5 923  C 171.5 926.08  169.08 928.5  166 928.5  C 162.92 928.5  160.5 926.08  160.5 923  C 160.5 919.92  162.92 917.5  166 917.5  Z " stroke-width="1" stroke="#0079fe" fill="none" />
  <path d="M 166 926  C 164.32 926  163 924.68  163 923  C 163 921.32  164.32 920  166 920  C 167.68 920  169 921.32  169 923  C 169 924.68  167.68 926  166 926  " fill-rule="nonzero" fill="#0079fe" stroke="none" />
</svg>