<?xml version="1.0" encoding="utf-8"?>
<svg version="1.1" xmlns:xlink="http://www.w3.org/1999/xlink" width="12px" height="12px" viewBox="160 556  12 12" xmlns="http://www.w3.org/2000/svg">
  <path d="M 166 556  C 169.36 556  172 558.64  172 562  C 172 565.36  169.36 568  166 568  C 162.64 568  160 565.36  160 562  C 160 558.64  162.64 556  166 556  Z " fill-rule="nonzero" fill="#ffffff" stroke="none" />
  <path d="M 166 556.5  C 169.08 556.5  171.5 558.92  171.5 562  C 171.5 565.08  169.08 567.5  166 567.5  C 162.92 567.5  160.5 565.08  160.5 562  C 160.5 558.92  162.92 556.5  166 556.5  Z " stroke-width="1" stroke="#0079fe" fill="none" />
  <path d="M 166 565  C 164.32 565  163 563.68  163 562  C 163 560.32  164.32 559  166 559  C 167.68 559  169 560.32  169 562  C 169 563.68  167.68 565  166 565  " fill-rule="nonzero" fill="#0079fe" stroke="none" />
</svg>