<?xml version="1.0" encoding="utf-8"?>
<svg version="1.1" xmlns:xlink="http://www.w3.org/1999/xlink" width="12px" height="12px" viewBox="232 556  12 12" xmlns="http://www.w3.org/2000/svg">
  <path d="M 238 556  C 241.36 556  244 558.64  244 562  C 244 565.36  241.36 568  238 568  C 234.64 568  232 565.36  232 562  C 232 558.64  234.64 556  238 556  Z " fill-rule="nonzero" fill="#ffffff" stroke="none" />
  <path d="M 238 556.5  C 241.08 556.5  243.5 558.92  243.5 562  C 243.5 565.08  241.08 567.5  238 567.5  C 234.92 567.5  232.5 565.08  232.5 562  C 232.5 558.92  234.92 556.5  238 556.5  Z " stroke-width="1" stroke="#0079fe" fill="none" />
  <path d="M 238 565  C 236.32 565  235 563.68  235 562  C 235 560.32  236.32 559  238 559  C 239.68 559  241 560.32  241 562  C 241 563.68  239.68 565  238 565  " fill-rule="nonzero" fill="#0079fe" stroke="none" />
</svg>