<?xml version="1.0" encoding="utf-8"?>
<svg version="1.1" xmlns:xlink="http://www.w3.org/1999/xlink" width="12px" height="14px" xmlns="http://www.w3.org/2000/svg">
  <g transform="matrix(1 0 0 1 -512 -738 )">
    <path d="M 7.8 0.636363636363636  C 7.8 0.254545454545455  8.04 0  8.4 0  C 8.7 0  8.94 0.254545454545455  9 0.572727272727273  L 9 1.27272727272727  L 11.4 1.27272727272727  C 11.76 1.27272727272727  12 1.52727272727273  12 1.90909090909091  L 12 13.3636363636364  C 12 13.7454545454545  11.76 14  11.4 14  L 0.6 14  C 0.24 14  0 13.7454545454545  0 13.3636363636364  L 0 1.90909090909091  C 0 1.52727272727273  0.24 1.27272727272727  0.6 1.27272727272727  L 3 1.27272727272727  L 3 0.636363636363636  C 3 0.254545454545455  3.24 0  3.6 0  C 3.9 0  4.14 0.254545454545455  4.2 0.572727272727273  L 4.2 1.27272727272727  L 7.8 1.27272727272727  L 7.8 0.636363636363636  Z M 10.8 12.7272727272727  L 10.8 5.72727272727273  L 1.2 5.72727272727273  L 1.2 12.7272727272727  L 10.8 12.7272727272727  Z M 3 3.24545454545455  L 3 2.54545454545455  L 1.2 2.54545454545455  L 1.2 4.45454545454545  L 10.8 4.45454545454545  L 10.8 2.54545454545455  L 9 2.54545454545455  L 9 3.18181818181818  C 9 3.56363636363636  8.76 3.81818181818182  8.4 3.81818181818182  C 8.1 3.81818181818182  7.86 3.56363636363636  7.8 3.24545454545455  L 7.8 2.54545454545455  L 4.2 2.54545454545455  L 4.2 3.18181818181818  C 4.2 3.56363636363636  3.96 3.81818181818182  3.6 3.81818181818182  C 3.3 3.81818181818182  3.06 3.56363636363636  3 3.24545454545455  Z " fill-rule="nonzero" fill="#868686" stroke="none" transform="matrix(1 0 0 1 512 738 )" />
  </g>
</svg>