<?xml version="1.0" encoding="utf-8"?>
<svg version="1.1" xmlns:xlink="http://www.w3.org/1999/xlink" width="12px" height="11px" xmlns="http://www.w3.org/2000/svg">
  <g transform="matrix(1 0 0 1 -459 -600 )">
    <path d="M 11.9795454545455 2.22115384615385  C 11.9795454545455 1.98713942307692  11.7845454545455 1.79807692307692  11.5431818181818 1.79807692307692  L 9.31090909090909 1.79807692307692  L 9.31090909090909 0.471995192307692  C 9.31090909090909 0.237980769230769  9.11590909090909 0.0489182692307691  8.87454545454546 0.0489182692307691  L 3.12545454545455 0.0489182692307691  C 2.88409090909091 0.0489182692307691  2.68909090909091 0.237980769230769  2.68909090909091 0.471995192307692  L 2.68909090909091 1.79807692307692  L 0.456818181818182 1.79807692307692  C 0.215454545454545 1.79807692307692  0.0204545454545455 1.98713942307692  0.0204545454545455 2.22115384615385  C 0.0204545454545455 2.45516826923077  0.215454545454545 2.64423076923077  0.456818181818182 2.64423076923077  L 11.5431818181818 2.64423076923077  C 11.7845454545455 2.64423076923077  11.9795454545455 2.45516826923077  11.9795454545455 2.22115384615385  Z M 3.56181818181818 1.79807692307692  L 3.56181818181818 0.895072115384615  L 8.43954545454546 0.895072115384615  L 8.43954545454546 1.79807692307692  L 3.56181818181818 1.79807692307692  Z M 9.98863636363636 3.678125  C 9.98727272727273 3.44411057692308  9.79227272727273 3.25504807692308  9.55090909090909 3.25504807692308  C 9.30954545454545 3.25504807692308  9.11454545454545 3.44411057692308  9.11454545454545 3.678125  L 9.11454545454545 10.1049278846154  L 2.88545454545455 10.1049278846154  L 2.88545454545455 3.71514423076923  C 2.88545454545455 3.48112980769231  2.69045454545455 3.29206730769231  2.44909090909091 3.29206730769231  C 2.20772727272727 3.29206730769231  2.01272727272727 3.48112980769231  2.01272727272727 3.71514423076923  L 2.01272727272727 10.5293269230769  C 2.01272727272727 10.7633413461538  2.20772727272727 10.9524038461538  2.44909090909091 10.9524038461538  L 9.55227272727273 10.9524038461538  C 9.79363636363636 10.9524038461538  9.98863636363636 10.7633413461538  9.98863636363636 10.5293269230769  L 9.98863636363636 3.678125  Z M 4.77818181818182 8.83834134615384  C 5.01954545454545 8.83834134615384  5.21454545454545 8.64795673076923  5.21454545454545 8.41526442307692  L 5.21454545454545 3.64242788461539  C 5.21454545454545 3.40841346153846  5.01954545454545 3.21935096153846  4.77818181818182 3.21935096153846  C 4.53681818181818 3.21935096153846  4.34181818181818 3.40841346153846  4.34181818181818 3.64242788461539  L 4.34181818181818 8.41526442307692  C 4.34181818181818 8.64927884615385  4.53681818181818 8.83834134615384  4.77818181818182 8.83834134615384  Z M 7.31863636363637 8.83834134615384  C 7.56 8.83834134615384  7.755 8.64795673076923  7.755 8.41526442307692  L 7.755 3.64242788461539  C 7.755 3.40841346153846  7.56 3.21935096153846  7.31863636363637 3.21935096153846  C 7.07727272727273 3.21935096153846  6.88227272727273 3.40841346153846  6.88227272727273 3.64242788461539  L 6.88227272727273 8.41526442307692  C 6.88227272727273 8.64927884615385  7.07727272727273 8.83834134615384  7.31863636363637 8.83834134615384  Z " fill-rule="nonzero" fill="#ffffff" stroke="none" transform="matrix(1 0 0 1 459 600 )" />
  </g>
</svg>