<?xml version="1.0" encoding="utf-8"?>
<svg version="1.1" xmlns:xlink="http://www.w3.org/1999/xlink" width="13px" height="8px" xmlns="http://www.w3.org/2000/svg">
  <g transform="matrix(1 0 0 1 -434 -601 )">
    <path d="M 6.80449029126213 7.91617647058823  C 6.72087378640777 7.92058823529412  6.6372572815534 7.92205882352941  6.55364077669903 7.92205882352941  C 4.4001213592233 7.92205882352941  2.30655339805825 6.73676470588235  0.328155339805825 4.39558823529412  L 0.121480582524271 4.15  L 0.30133495145631 3.88676470588235  C 0.326577669902912 3.84852941176471  0.940291262135922 2.95441176470588  1.99101941747573 2.04117647058824  C 2.6126213592233 1.5  3.26104368932039 1.06470588235294  3.91735436893204 0.745588235294118  C 4.75509708737864 0.338235294117648  5.60703883495146 0.122058823529412  6.45109223300971 0.100000000000001  C 8.66614077669903 0.0441176470588239  10.778640776699 1.31176470588235  12.7302184466019 3.86764705882353  L 12.9163834951456 4.11176470588235  L 12.7412621359223 4.36323529411765  C 12.7175970873786 4.39852941176471  12.1370145631068 5.22352941176471  11.1273058252427 6.07352941176471  C 10.5309466019417 6.57647058823529  9.90461165048544 6.98382352941176  9.26881067961165 7.28529411764706  C 8.45946601941748 7.66911764705882  7.62961165048544 7.88088235294118  6.80449029126213 7.91617647058823  Z M 2.65364077669903 2.67205882352941  C 2.00837378640777 3.22941176470588  1.53665048543689 3.78970588235294  1.29053398058252 4.10441176470588  C 3.07645631067961 6.12647058823529  4.9128640776699 7.11176470588235  6.75716019417476 7.03529411764706  C 8.32694174757281 6.97058823529412  9.64587378640777 6.12941176470588  10.4741504854369 5.43529411764706  C 11.0831310679612 4.925  11.5280339805825 4.41617647058824  11.7615291262136 4.12647058823529  C 10.0639563106796 1.99558823529412  8.2875 0.938235294117647  6.47949029126214 0.982352941176471  C 4.88604368932039 1.02058823529412  3.51978155339806 1.92205882352941  2.65364077669903 2.67205882352941  Z M 8.54466019417476 4.02205882352941  C 8.54466019417476 5.06029411764706  7.6375 5.90588235294118  6.52366504854369 5.90588235294118  C 5.40983009708738 5.90588235294118  4.50266990291262 5.06029411764706  4.50266990291262 4.02205882352941  C 4.50266990291262 2.98382352941176  5.40983009708738 2.13823529411765  6.52366504854369 2.13823529411765  C 7.6375 2.13823529411765  8.54466019417476 2.98382352941176  8.54466019417476 4.02205882352941  Z M 7.59805825242718 4.02205882352941  C 7.59805825242718 3.46911764705882  7.11686893203883 3.02058823529412  6.52366504854369 3.02058823529412  C 5.93046116504854 3.02058823529412  5.44927184466019 3.46911764705882  5.44927184466019 4.02205882352941  C 5.44927184466019 4.575  5.93046116504854 5.02352941176471  6.52366504854369 5.02352941176471  C 7.11686893203883 5.02352941176471  7.59805825242718 4.575  7.59805825242718 4.02205882352941  Z " fill-rule="nonzero" fill="#ffffff" stroke="none" transform="matrix(1 0 0 1 434 601 )" />
  </g>
</svg>