<?xml version="1.0" encoding="utf-8"?>
<svg version="1.1" xmlns:xlink="http://www.w3.org/1999/xlink" width="12px" height="12px" viewBox="123 393  12 12" xmlns="http://www.w3.org/2000/svg">
  <path d="M 129 393  C 132.36 393  135 395.64  135 399  C 135 402.36  132.36 405  129 405  C 125.64 405  123 402.36  123 399  C 123 395.64  125.64 393  129 393  Z " fill-rule="nonzero" fill="#ffffff" stroke="none" />
  <path d="M 129 393.5  C 132.08 393.5  134.5 395.92  134.5 399  C 134.5 402.08  132.08 404.5  129 404.5  C 125.92 404.5  123.5 402.08  123.5 399  C 123.5 395.92  125.92 393.5  129 393.5  Z " stroke-width="1" stroke="#0079fe" fill="none" />
  <path d="M 129 402  C 127.32 402  126 400.68  126 399  C 126 397.32  127.32 396  129 396  C 130.68 396  132 397.32  132 399  C 132 400.68  130.68 402  129 402  " fill-rule="nonzero" fill="#0079fe" stroke="none" />
</svg>