<?xml version="1.0" encoding="utf-8"?>
<svg version="1.1" xmlns:xlink="http://www.w3.org/1999/xlink" width="21px" height="20px" xmlns="http://www.w3.org/2000/svg">
  <defs>
    <mask fill="white" id="clip2">
      <path d="M 10.9455128205128 3  L 0.0480769230769482 3  L 0.0480769230769482 19.5595003287311  L 20.4807692307692 19.5595003287311  L 20.4807692307692 0.164365548980947  L 13.1891025641026 0.164365548980947  L 10.9455128205128 3  Z " fill-rule="evenodd" />
    </mask>
  </defs>
  <g transform="matrix(1 0 0 1 -123 -159 )">
    <path d="M 10.9455128205128 3  L 0.0480769230769482 3  L 0.0480769230769482 19.5595003287311  L 20.4807692307692 19.5595003287311  L 20.4807692307692 0.164365548980947  L 13.1891025641026 0.164365548980947  L 10.9455128205128 3  Z " fill-rule="nonzero" fill="#979897" stroke="none" fill-opacity="0" transform="matrix(1 0 0 1 123 159 )" />
    <path d="M 10.9455128205128 3  L 0.0480769230769482 3  L 0.0480769230769482 19.5595003287311  L 20.4807692307692 19.5595003287311  L 20.4807692307692 0.164365548980947  L 13.1891025641026 0.164365548980947  L 10.9455128205128 3  Z " stroke-width="4" stroke="#0079fe" fill="none" transform="matrix(1 0 0 1 123 159 )" mask="url(#clip2)" />
  </g>
</svg>