<?xml version="1.0" encoding="utf-8"?>
<svg version="1.1" xmlns:xlink="http://www.w3.org/1999/xlink" width="12px" height="12px" viewBox="693 787  12 12" xmlns="http://www.w3.org/2000/svg">
  <path d="M 699 787  C 702.36 787  705 789.64  705 793  C 705 796.36  702.36 799  699 799  C 695.64 799  693 796.36  693 793  C 693 789.64  695.64 787  699 787  Z " fill-rule="nonzero" fill="#ffffff" stroke="none" />
  <path d="M 699 787.5  C 702.08 787.5  704.5 789.92  704.5 793  C 704.5 796.08  702.08 798.5  699 798.5  C 695.92 798.5  693.5 796.08  693.5 793  C 693.5 789.92  695.92 787.5  699 787.5  Z " stroke-width="1" stroke="#0079fe" fill="none" />
  <path d="M 699 796  C 697.32 796  696 794.68  696 793  C 696 791.32  697.32 790  699 790  C 700.68 790  702 791.32  702 793  C 702 794.68  700.68 796  699 796  " fill-rule="nonzero" fill="#0079fe" stroke="none" />
</svg>